<svg width="24" height="24" viewBox="0 0 24 24" fill="none" xmlns="http://www.w3.org/2000/svg">
<g clip-path="url(#clip0_1062_89475)">
<path d="M18.4844 11.9793H5.51562V14.3231H18.4844V11.9793Z" fill="#5D5E61"/>
<path d="M5.51562 2.60413V3.19006C5.51562 4.15936 6.30414 4.94788 7.27344 4.94788H16.6875C17.6568 4.94788 18.4844 4.15936 18.4844 3.19006V2.60413H5.51562Z" fill="#5D5E61"/>
<path d="M19.6562 2.66342V3.19006C19.6562 4.80542 18.3029 6.11975 16.6875 6.11975H7.27344C5.65809 6.11975 4.34375 4.80542 4.34375 3.19006V2.66342C3.00816 2.93565 2 4.11913 2 5.53381V11.3932C2 12.8079 3.00816 13.9914 4.34375 14.2636V10.2213C4.34375 9.25202 5.13227 8.4635 6.10156 8.4635H17.8984C18.8677 8.4635 19.6562 9.25202 19.6562 10.2213V14.2636C20.9918 13.9914 22 12.8079 22 11.3932V5.53381C22 4.11913 20.9918 2.93565 19.6562 2.66342Z" fill="#5D5E61"/>
<path d="M17.8984 9.63538H6.10156C5.77828 9.63538 5.51562 9.89803 5.51562 10.2213V10.8073H18.4844V10.2213C18.4844 9.89803 18.2217 9.63538 17.8984 9.63538Z" fill="#5D5E61"/>
<path d="M9.38543 18.9537C9.9416 18.5829 10.2735 17.9626 10.2735 17.2943C10.2735 16.626 9.94164 16.0057 9.38543 15.6349C9.11422 15.4547 8.75199 15.528 8.57289 15.7974C8.3932 16.0669 8.46645 16.4309 8.73539 16.61C8.96828 16.7651 9.1016 17.0145 9.1016 17.2944C9.1016 17.5742 8.96828 17.8237 8.73539 17.9787C8.17922 18.3495 7.84734 18.9698 7.84734 19.6381C7.84734 20.3064 8.17922 20.9267 8.73539 21.2975C9.00953 21.4792 9.37133 21.4003 9.54793 21.135C9.72762 20.8655 9.65492 20.5021 9.38543 20.3224C9.15254 20.1674 9.01922 19.9179 9.01922 19.6381C9.01922 19.3582 9.15254 19.1088 9.38543 18.9537Z" fill="#5D5E61"/>
<path d="M12.3542 18.9537C12.9104 18.5829 13.2422 17.9626 13.2422 17.2943C13.2422 16.626 12.9104 16.0057 12.3542 15.6349C12.083 15.4547 11.7207 15.528 11.5416 15.7974C11.362 16.0669 11.4352 16.4309 11.7041 16.61C11.937 16.7651 12.0704 17.0145 12.0704 17.2944C12.0704 17.5742 11.937 17.8237 11.7041 17.9787C11.148 18.3495 10.8161 18.9698 10.8161 19.6381C10.8161 20.3064 11.148 20.9267 11.7041 21.2975C11.9783 21.4792 12.3401 21.4003 12.5167 21.135C12.6964 20.8655 12.6237 20.5021 12.3542 20.3224C12.1213 20.1674 11.988 19.9179 11.988 19.6381C11.988 19.3582 12.1213 19.1088 12.3542 18.9537Z" fill="#5D5E61"/>
<path d="M15.2839 18.9537C15.84 18.5829 16.1719 17.9626 16.1719 17.2943C16.1719 16.626 15.8401 16.0057 15.2839 15.6349C15.0121 15.4547 14.6504 15.528 14.4713 15.7974C14.2916 16.0669 14.3649 16.4309 14.6338 16.61C14.8667 16.7651 15 17.0145 15 17.2944C15 17.5742 14.8667 17.8237 14.6338 17.9787C14.0777 18.3495 13.7458 18.9698 13.7458 19.6381C13.7458 20.3064 14.0777 20.9267 14.6338 21.2975C14.908 21.4792 15.2698 21.4003 15.4464 21.135C15.6261 20.8655 15.5534 20.5021 15.2839 20.3224C15.051 20.1674 14.9177 19.9179 14.9177 19.6381C14.9177 19.3582 15.051 19.1088 15.2839 18.9537Z" fill="#5D5E61"/>
<path d="M20.2422 16.6666H19.6562V16.0807C19.6562 15.7568 19.3942 15.4948 19.0703 15.4948C18.7464 15.4948 18.4844 15.7568 18.4844 16.0807V16.6666H17.8984C17.5746 16.6666 17.3125 16.9287 17.3125 17.2526C17.3125 17.5764 17.5746 17.8385 17.8984 17.8385H18.4844V18.4244C18.4844 18.7483 18.7464 19.0104 19.0703 19.0104C19.3942 19.0104 19.6562 18.7483 19.6562 18.4244V17.8385H20.2422C20.5661 17.8385 20.8281 17.5764 20.8281 17.2526C20.8281 16.9287 20.5661 16.6666 20.2422 16.6666Z" fill="#5D5E61"/>
<path d="M6.10156 16.6666H5.51562V16.0807C5.51562 15.7568 5.25355 15.4948 4.92969 15.4948C4.60582 15.4948 4.34375 15.7568 4.34375 16.0807V16.6666H3.75781C3.43395 16.6666 3.17188 16.9287 3.17188 17.2526C3.17188 17.5764 3.43395 17.8385 3.75781 17.8385H4.34375V18.4244C4.34375 18.7483 4.60582 19.0104 4.92969 19.0104C5.25355 19.0104 5.51562 18.7483 5.51562 18.4244V17.8385H6.10156C6.42543 17.8385 6.6875 17.5764 6.6875 17.2526C6.6875 16.9287 6.42543 16.6666 6.10156 16.6666Z" fill="#5D5E61"/>
</g>
<defs>
<clipPath id="clip0_1062_89475">
<rect width="24" height="24" fill="white"/>
</clipPath>
</defs>
</svg>
