<svg width="24" height="24" viewBox="0 0 24 24" fill="none" xmlns="http://www.w3.org/2000/svg">
<g clip-path="url(#clip0_1062_89502)">
<path d="M20.4782 18.1395V12.4348H21.3478C21.7079 12.4348 22 12.1426 22 11.7826C22 11.4225 21.7079 11.1304 21.3478 11.1304H19.1739V3.95652C19.1739 2.87766 18.2962 2 17.2174 2H6.78262C5.70375 2 4.82609 2.87766 4.82609 3.95652V11.1304H2.65219C2.29215 11.1304 2 11.4226 2 11.7826C2 12.1427 2.29215 12.4348 2.65219 12.4348H3.52176V18.1395C2.65219 18.3382 2 19.1145 2 20.0435V21.3478C2 21.7079 2.29215 22 2.65219 22H21.3479C21.7079 22 22 21.7079 22 21.3478V20.0435C22 19.1145 21.3478 18.3382 20.4782 18.1395ZM6.13043 18.087H4.82609V12.4348C5.29809 12.4348 5.65844 12.4348 6.13043 12.4348V18.087ZM8.73914 18.087H7.43477V12.4348C7.90676 12.4348 8.26711 12.4348 8.7391 12.4348L8.73914 18.087ZM11.3478 18.087H10.0435V12.4348H11.3478V18.087ZM13.9565 18.087H12.6522V12.4348H13.9565V18.087ZM16.5652 18.087H15.2609V12.4348C15.7329 12.4348 16.0932 12.4348 16.5652 12.4348V18.087ZM16.5652 11.1304H15.2609V5.91305H12.6522V11.1304H11.3479V5.91305H8.73914V11.1304H7.43477V5.26086C7.43477 4.90082 7.72691 4.60867 8.08695 4.60867H15.913C16.2731 4.60867 16.5652 4.90082 16.5652 5.26086V11.1304ZM19.1739 18.087H17.8696V12.4348C18.3416 12.4348 18.7019 12.4348 19.1739 12.4348V18.087Z" fill="#5D5E61"/>
</g>
<defs>
<clipPath id="clip0_1062_89502">
<rect width="24" height="24" fill="white"/>
</clipPath>
</defs>
</svg>
