<svg width="24" height="24" viewBox="0 0 24 24" fill="none" xmlns="http://www.w3.org/2000/svg">
<g clip-path="url(#clip0_1062_89572)">
<path d="M10.3437 6.78125V7.40625C10.3437 7.59375 10.5 7.75 10.6875 7.75H12.6875C12.875 7.75 13.0312 7.59375 13.0312 7.40625V6.78125C13.0312 6.59375 12.875 6.4375 12.6875 6.4375H10.6875C10.5 6.4375 10.3437 6.59375 10.3437 6.78125Z" fill="#5D5E61"/>
<path d="M5.68748 5.78125C5.68748 4.25 6.90623 3.03125 8.43748 3.03125C9.96873 3.03125 11.1875 4.28125 11.1875 5.78125V5.8125H12.2187V5.78125C12.2187 3.6875 10.5312 2 8.43748 2C6.37498 2 4.68748 3.6875 4.68748 5.78125V11.1562H5.71873V5.78125H5.68748Z" fill="#5D5E61"/>
<path d="M11.9375 10.6875C11.9375 10.8125 11.8437 10.9062 11.75 10.9688C11.625 11 11.5 11 11.4062 10.9062C11.125 10.6562 10.75 10.5 10.3437 10.5C9.46873 10.5 8.74998 11.2188 8.74998 12.0938C8.74998 12.9688 9.46873 13.6875 10.3437 13.6875C10.5625 13.6875 10.7812 13.6562 10.9687 13.5625C11 13.5312 11.0625 13.5312 11.0937 13.5312C11.1562 13.5312 11.2187 13.5625 11.25 13.5938C11.3437 13.6562 11.4062 13.75 11.4062 13.8438C11.4687 14.6875 12.1562 15.3438 13 15.3438C13.7187 15.3438 14.3437 14.875 14.5312 14.1875C14.5625 14.0938 14.625 14 14.75 13.9688C14.8437 13.9375 14.9687 13.9375 15.0625 14.0312C15.3437 14.25 15.6875 14.3438 16.0312 14.3438C16.625 14.3438 17.1562 14.0312 17.4375 13.5C17.4687 13.4062 17.5625 13.3438 17.6562 13.3438C17.75 13.3125 17.8437 13.3438 17.9375 13.4062C18.2187 13.625 18.5625 13.75 18.9062 13.75C19.7812 13.75 20.5 13.0312 20.5 12.1562C20.5 11.2812 19.7812 10.5625 18.9062 10.5625C18.8437 10.5625 18.7812 10.5625 18.7187 10.5625C18.5625 10.5625 18.4375 10.5 18.375 10.3438C18.1562 9.6875 17.5625 9.25 16.875 9.25C16.2812 9.25 15.75 9.5625 15.4687 10.0625C15.4062 10.1562 15.3125 10.2188 15.1875 10.2188C15.0625 10.2188 14.9687 10.1562 14.9062 10.0625C14.625 9.5625 14.0937 9.25 13.5 9.25C12.6875 9.21875 12 9.875 11.9375 10.6875Z" fill="#5D5E61"/>
<path d="M15.6562 21.6562C15.6562 21.8438 15.8125 22 16 22H17.375C17.5625 22 17.7187 21.8438 17.7187 21.6562V20.9375H15.625V21.6562H15.6562Z" fill="#5D5E61"/>
<path d="M21.4375 12.4062C21.3437 12.2812 21.25 12.1562 21.125 12.0625V12.0938C21.125 13.3125 20.125 14.3125 18.9062 14.3125C18.5312 14.3125 18.1562 14.2188 17.8125 14.0312C17.4062 14.5938 16.75 14.9375 16.0312 14.9375C15.6875 14.9375 15.3437 14.8438 15.0312 14.7188C14.6562 15.4688 13.9062 15.9688 13.0312 15.9688C12 15.9688 11.0937 15.25 10.875 14.2812C10.7187 14.3125 10.5312 14.3438 10.375 14.3438C9.15623 14.3438 8.15623 13.3438 8.15623 12.125C8.15623 12.0313 8.15623 11.9062 8.18748 11.8125H3.40623C3.09373 11.8125 2.78123 11.9688 2.59373 12.2188C2.40623 12.4688 2.34373 12.8125 2.43748 13.0938L4.12498 18.7812C4.37498 19.6875 5.21873 20.3125 6.15623 20.3125H17.8437C18.7812 20.3125 19.625 19.6875 19.875 18.7812L21.5312 13.4375C21.625 13.0625 21.5937 12.7188 21.4375 12.4062ZM19.2187 18.5625C19.0312 19.1875 18.5 19.625 17.8437 19.625C17.6562 19.625 17.5312 19.4688 17.5312 19.3125C17.5312 19.125 17.6875 19 17.8437 19C18.1875 19 18.5 18.75 18.5937 18.4062C18.6562 18.25 18.8125 18.125 19 18.1875C19.1875 18.2188 19.2812 18.375 19.2187 18.5625ZM20.1875 15.375L19.6875 17.0625C19.6562 17.2188 19.5312 17.2813 19.375 17.2813C19.3437 17.2813 19.3125 17.2812 19.2812 17.25C19.125 17.1875 19 17.0312 19.0625 16.8438L19.5625 15.1562C19.625 15 19.7812 14.875 19.9687 14.9375C20.125 15 20.25 15.1875 20.1875 15.375Z" fill="#5D5E61"/>
<path d="M6.31248 21.6562C6.31248 21.8438 6.46873 22 6.65623 22H8.03123C8.21873 22 8.37498 21.8438 8.37498 21.6562V20.9375H6.28123L6.31248 21.6562Z" fill="#5D5E61"/>
</g>
<defs>
<clipPath id="clip0_1062_89572">
<rect width="24" height="24" fill="white"/>
</clipPath>
</defs>
</svg>
