<svg width="24" height="24" viewBox="0 0 24 24" fill="none" xmlns="http://www.w3.org/2000/svg">
<g clip-path="url(#clip0_1062_89474)">
<path d="M19.6562 4.28125H4.34375C3.78125 4.28125 3.3125 4.75 3.3125 5.3125V11.0625H20.7188V5.3125C20.6875 4.75 20.2188 4.28125 19.6562 4.28125ZM10.9375 9.5C10.875 9.71875 10.8438 9.90625 10.8438 10.0937C10.8438 10.2812 10.6875 10.4062 10.5 10.4062C10.3125 10.4062 10.1875 10.2188 10.1875 10.0625C10.2188 9.84375 10.25 9.625 10.3125 9.375C10.3438 9.21875 10.3125 9.03125 10.1875 8.90625C10.0625 8.78125 9.90625 8.71875 9.71875 8.75C8.40625 8.96875 7.0625 8.96875 5.75 8.78125C5.5625 8.75 5.40625 8.8125 5.3125 8.9375C5.1875 9.0625 5.15625 9.25 5.1875 9.4375C5.25 9.65625 5.28125 9.875 5.28125 10.0625C5.3125 10.25 5.15625 10.4062 4.96875 10.4375H4.9375C4.78125 10.4375 4.625 10.3125 4.59375 10.125C4.59375 9.9375 4.5625 9.78125 4.5 9.59375C4.40625 9.1875 4.5 8.78125 4.78125 8.5C5.0625 8.21875 5.4375 8.0625 5.8125 8.125C7.0625 8.3125 8.3125 8.3125 9.5625 8.09375C9.9375 8.03125 10.3438 8.15625 10.5938 8.46875C10.9062 8.71875 11.0312 9.125 10.9375 9.5ZM19.5938 9.5C19.5312 9.6875 19.5 9.90625 19.5 10.0937C19.5 10.2812 19.3438 10.4062 19.1562 10.4062C18.9688 10.4062 18.8438 10.25 18.8438 10.0625C18.8438 9.84375 18.9062 9.59375 18.9375 9.375C18.9688 9.21875 18.9375 9.03125 18.8125 8.90625C18.6875 8.78125 18.5312 8.71875 18.3438 8.75C17.0312 8.96875 15.6875 8.96875 14.375 8.78125C14.1875 8.75 14.0312 8.8125 13.9375 8.9375C13.8125 9.0625 13.7812 9.25 13.8125 9.4375C13.875 9.625 13.9062 9.84375 13.9062 10.0625C13.9375 10.25 13.7812 10.4062 13.5938 10.4375H13.5625C13.4062 10.4375 13.25 10.3125 13.2188 10.125C13.1875 9.9375 13.1875 9.75 13.125 9.59375C13.0312 9.1875 13.125 8.78125 13.4062 8.46875C13.6875 8.1875 14.0625 8.03125 14.4375 8.09375C15.6875 8.28125 16.9375 8.28125 18.1875 8.0625C18.5625 8 18.9688 8.125 19.25 8.4375C19.5938 8.71875 19.6875 9.125 19.5938 9.5ZM20.9688 11.75H3.03125C2.46875 11.75 2 12.2188 2 12.7812V19.0625C2 19.4375 2.3125 19.7188 2.65625 19.7188H3.28125C3.46875 19.7188 3.625 19.6562 3.75 19.5312L4.53125 18.7188C4.78125 18.4688 5.125 18.3125 5.5 18.3125H18.4688C18.8125 18.3125 19.1875 18.4688 19.4375 18.7188L20.2188 19.5312C20.3438 19.6562 20.5 19.7188 20.6875 19.7188H21.3125C21.6875 19.7188 21.9688 19.4375 21.9688 19.0625V12.7812C22 12.2188 21.5312 11.75 20.9688 11.75ZM21 16.9375H3C2.8125 16.9375 2.65625 16.7812 2.65625 16.5938C2.65625 16.4062 2.8125 16.25 3 16.25H21C21.1875 16.25 21.3438 16.4062 21.3438 16.5938C21.3438 16.7812 21.1875 16.9375 21 16.9375ZM21 14.1563H3C2.8125 14.1563 2.65625 14 2.65625 13.8125C2.65625 13.625 2.8125 13.4688 3 13.4688H21C21.1875 13.4688 21.3438 13.625 21.3438 13.8125C21.3438 14 21.1875 14.1563 21 14.1563Z" fill="#5D5E61"/>
</g>
<defs>
<clipPath id="clip0_1062_89474">
<rect width="24" height="24" fill="white"/>
</clipPath>
</defs>
</svg>
