<svg width="24" height="24" viewBox="0 0 24 24" fill="none" xmlns="http://www.w3.org/2000/svg">
<g clip-path="url(#clip0_1062_89546)">
<path d="M18.872 15.5009C18.4503 16.1121 17.469 17.6214 17.469 18.4453C17.469 19.5115 18.3364 20.3789 19.4026 20.3789C20.4688 20.3789 21.3362 19.5115 21.3362 18.4453C21.3362 17.6214 20.3549 16.112 19.9332 15.5009C19.6915 15.1521 19.1137 15.1521 18.872 15.5009Z" fill="#5D5E61"/>
<path d="M3.18102 16.2247L5.32611 13.0071C5.68047 12.4764 5.86743 11.8584 5.86743 11.2195V5.51172C5.86743 4.44549 6.73479 3.57812 7.80102 3.57812H8.56427C8.75901 4.12417 9.18857 4.55373 9.73461 4.74846V6.15625H7.80102C7.44477 6.15625 7.15649 6.44453 7.15649 6.80078V12C7.15649 12.3563 7.44477 12.6445 7.80102 12.6445H12.9573C13.3135 12.6445 13.6018 12.3563 13.6018 12V11.3555H16.8245C17.1801 11.3555 17.469 11.6444 17.469 12V12.6445H16.8245C16.4682 12.6445 16.1799 12.9328 16.1799 13.2891C16.1799 13.6453 16.4682 13.9336 16.8245 13.9336H21.9807C22.337 13.9336 22.6252 13.6453 22.6252 13.2891C22.6252 12.9328 22.337 12.6445 21.9807 12.6445H21.3362V12C21.3362 9.5125 19.312 7.44531 16.8245 7.44531H13.6018V6.80078C13.6018 6.44453 13.3135 6.15625 12.9573 6.15625H11.0237V4.74846C11.7723 4.4815 12.3127 3.77277 12.3127 2.93359C12.3127 1.86737 11.4454 1 10.3791 1C9.53997 1 8.83124 1.54046 8.56427 2.28906H7.80102C6.02413 2.28906 4.57836 3.73483 4.57836 5.51172V11.2195C4.57836 11.6028 4.46634 11.9736 4.25356 12.2921L2.10848 15.5097C1.91082 15.8061 1.99079 16.2058 2.28723 16.4035C2.58865 16.6033 2.98676 16.5166 3.18102 16.2247Z" fill="#5D5E61"/>
<path d="M8.44551 13.9336V21.7109H6.51192C6.15566 21.7109 5.86738 21.9992 5.86738 22.3555C5.86738 22.7117 6.15566 23 6.51192 23H14.2463C14.6025 23 14.8908 22.7117 14.8908 22.3555C14.8908 21.9992 14.6025 21.7109 14.2463 21.7109H12.3127V13.9336H8.44551Z" fill="#5D5E61"/>
</g>
<defs>
<clipPath id="clip0_1062_89546">
<rect width="24" height="24" fill="white"/>
</clipPath>
</defs>
</svg>
