<svg width="24" height="24" viewBox="0 0 24 24" fill="none" xmlns="http://www.w3.org/2000/svg">
<g clip-path="url(#clip0_1062_89600)">
<path d="M3 21.504C3 21.9008 3.15761 22.2813 3.43817 22.5618C3.71872 22.8424 4.09924 23 4.496 23H20.0955C20.4922 23 20.8727 22.8424 21.1533 22.5618C21.4339 22.2813 21.5915 21.9008 21.5915 21.504V9.56827H3V21.504ZM15.8744 12.7451H18.3003V15.1709H15.8744V12.7451ZM15.8744 16.8693H18.3003V19.2952H15.8744V16.8693ZM11.0843 12.7451H13.5072V15.1709H11.0843V12.7451ZM11.0843 16.8693H13.5072V19.2952H11.0843V16.8693ZM6.28827 12.7451H8.71413V15.1709H6.28827V12.7451ZM6.28827 16.8693H8.71413V19.2952H6.28827V16.8693ZM16.9891 5.90453C17.0591 5.90453 17.1262 5.87672 17.1757 5.82721C17.2253 5.7777 17.2531 5.71055 17.2531 5.64053V1.264C17.2531 1.19398 17.2253 1.12683 17.1757 1.07732C17.1262 1.02781 17.0591 1 16.9891 1C16.919 1 16.8519 1.02781 16.8024 1.07732C16.7529 1.12683 16.7251 1.19398 16.7251 1.264V5.64053C16.7251 5.71055 16.7529 5.7777 16.8024 5.82721C16.8519 5.87672 16.919 5.90453 16.9891 5.90453Z" fill="#5D5E61"/>
<path d="M20.0955 3.31728H17.7723V5.64048C17.7723 5.8513 17.6885 6.0535 17.5394 6.20258C17.3904 6.35166 17.1882 6.43541 16.9773 6.43541C16.7665 6.43541 16.5643 6.35166 16.4152 6.20258C16.2661 6.0535 16.1824 5.8513 16.1824 5.64048V3.31728H8.40613V5.64048C8.41272 5.74873 8.39708 5.85719 8.36018 5.95918C8.32329 6.06117 8.26591 6.15453 8.19158 6.23351C8.11726 6.3125 8.02755 6.37544 7.92799 6.41846C7.82843 6.46148 7.72112 6.48368 7.61267 6.48368C7.50421 6.48368 7.3969 6.46148 7.29734 6.41846C7.19778 6.37544 7.10808 6.3125 7.03375 6.23351C6.95942 6.15453 6.90205 6.06117 6.86515 5.95918C6.82825 5.85719 6.81261 5.74873 6.8192 5.64048V3.31728H4.496C4.09947 3.31805 3.71941 3.47591 3.43902 3.7563C3.15864 4.03669 3.00078 4.41675 3 4.81328V9.04021H21.5915V4.81328C21.5907 4.41675 21.4328 4.03669 21.1524 3.7563C20.8721 3.47591 20.492 3.31805 20.0955 3.31728Z" fill="#5D5E61"/>
<path d="M7.6025 5.90453C7.63741 5.90492 7.67206 5.89838 7.70443 5.88528C7.73679 5.87219 7.76625 5.85281 7.79107 5.82825C7.8159 5.8037 7.83561 5.77447 7.84906 5.74224C7.86251 5.71002 7.86943 5.67545 7.86943 5.64053V1.264C7.86252 1.1984 7.83158 1.13769 7.78256 1.09356C7.73354 1.04943 7.66992 1.02501 7.60396 1.02501C7.53801 1.02501 7.47438 1.04943 7.42537 1.09356C7.37635 1.13769 7.3454 1.1984 7.3385 1.264V5.64053C7.3385 5.71055 7.36631 5.7777 7.41582 5.82721C7.46533 5.87672 7.53248 5.90453 7.6025 5.90453Z" fill="#5D5E61"/>
</g>
<defs>
<clipPath id="clip0_1062_89600">
<rect width="24" height="24" fill="white"/>
</clipPath>
</defs>
</svg>
