<svg width="24" height="24" viewBox="0 0 24 24" fill="none" xmlns="http://www.w3.org/2000/svg">
<g clip-path="url(#clip0_1062_89499)">
<path d="M6.56523 13.3044H3.30434V6.13044C3.30434 5.77017 3.01221 5.47827 2.65217 5.47827C2.29213 5.47827 2 5.77017 2 6.13044C2 14.2268 2 12.4027 2 20.4783C2 20.8383 2.29213 21.1304 2.65217 21.1304C3.01221 21.1304 3.30434 20.8383 3.30434 20.4783V17.2174H5.91302V20.4783C5.91302 20.8383 6.20515 21.1304 6.56519 21.1304C6.92523 21.1304 7.21736 20.8383 7.21736 20.4783C7.21736 18.2067 7.21736 16.221 7.21736 13.9565C7.2174 13.5965 6.92527 13.3044 6.56523 13.3044Z" fill="#5D5E61"/>
<path d="M21.3478 5.47827C20.9878 5.47827 20.6957 5.77017 20.6957 6.13044V13.3044H17.4348C17.0747 13.3044 16.7826 13.5965 16.7826 13.9565C16.7826 16.222 16.7826 18.2057 16.7826 20.4783C16.7826 20.8383 17.0747 21.1304 17.4348 21.1304C17.7948 21.1304 18.0869 20.8383 18.0869 20.4783V17.2174H20.6956V20.4783C20.6956 20.8383 20.9877 21.1304 21.3478 21.1304C21.7078 21.1304 22 20.8383 22 20.4783C22 12.4025 22 14.2274 22 6.13044C22 5.77017 21.7079 5.47827 21.3478 5.47827Z" fill="#5D5E61"/>
<path d="M17.2173 8.08691H15.2608V6.6624C16.0183 6.39231 16.5652 5.67517 16.5652 4.82606V3.52168C16.5652 3.16141 16.273 2.86951 15.913 2.86951H13.3043C12.9443 2.86951 12.6521 3.16141 12.6521 3.52168V4.82602C12.6521 5.67509 13.199 6.39227 13.9565 6.66236V8.08687C12.5405 8.08687 11.4594 8.08687 10.0434 8.08687V6.66236C10.8009 6.39227 11.3478 5.67513 11.3478 4.82602V3.52168C11.3478 3.16141 11.0556 2.86951 10.6956 2.86951H8.0869C7.72686 2.86951 7.43473 3.16141 7.43473 3.52168V4.82602C7.43473 5.67509 7.98159 6.39227 8.73907 6.66236V8.08687H6.78256C5.7037 8.08687 4.82605 8.96452 4.82605 10.0434V11.3477C4.82605 11.7078 5.11818 11.9999 5.47822 11.9999H8.17271L8.84868 13.0138C9.10661 13.4002 9.67602 13.4002 9.93395 13.0138L10.6099 11.9999H11.3478V19.826H9.39132C9.03128 19.826 8.73915 20.1181 8.73915 20.4781C8.73915 20.8382 9.03128 21.1303 9.39132 21.1303H14.6086C14.9687 21.1303 15.2608 20.8382 15.2608 20.4781C15.2608 20.1181 14.9687 19.826 14.6086 19.826H12.6521V12H18.5217C18.8817 12 19.1739 11.7078 19.1739 11.3478V10.0435C19.1739 8.96456 18.2962 8.08691 17.2173 8.08691ZM8.73907 4.17385H10.0434V4.82602C10.0434 5.18562 9.75085 5.47819 9.39124 5.47819C9.03163 5.47819 8.73907 5.18562 8.73907 4.82602V4.17385ZM9.3912 11.4764C9.16748 11.1408 9.26724 11.2904 8.00113 9.39129H10.7813C9.46157 11.3709 9.70597 11.0043 9.3912 11.4764ZM14.6086 5.47823C14.249 5.47823 13.9565 5.18566 13.9565 4.82606V4.17385H15.2608V4.82602C15.2608 5.18562 14.9682 5.47823 14.6086 5.47823Z" fill="#5D5E61"/>
</g>
<defs>
<clipPath id="clip0_1062_89499">
<rect width="24" height="24" fill="white"/>
</clipPath>
</defs>
</svg>
