<svg width="24" height="24" viewBox="0 0 24 24" fill="none" xmlns="http://www.w3.org/2000/svg">
<g clip-path="url(#clip0_1062_89482)">
<path d="M5.1875 15.75C5.1875 16.4062 4.65625 16.9062 4.03125 16.9062H2V8.0625H4.03125C4.6875 8.0625 5.1875 8.59375 5.1875 9.21875V15.75ZM10.875 3.09375C11.2812 3.09375 11.625 3.4375 11.625 3.84375V5.53125H10.125V3.84375C10.125 3.4375 10.4375 3.09375 10.875 3.09375ZM8.8125 7.125C8.8125 6.625 9.21875 6.1875 9.75 6.1875H11.9688C12.4688 6.1875 12.9062 6.59375 12.9062 7.125V9.90625H8.8125V7.125ZM14.9062 14.4062H5.84375V10.5625H14.9062C18.1562 10.5625 20.7812 13.1875 20.7812 16.4375V17.7812H16.9375V16.4375C16.9375 15.3125 16.0312 14.4062 14.9062 14.4062ZM22 20.5C22 20.7188 21.8125 20.9062 21.5938 20.9062H16.125C15.9062 20.9062 15.7188 20.7188 15.7188 20.5V18.8438C15.7188 18.625 15.9062 18.4375 16.125 18.4375H21.5625C21.7812 18.4375 21.9688 18.625 21.9688 18.8438V20.5H22Z" fill="#5D5E61"/>
<path d="M15.3438 4.65625H11.625C11.4375 4.65625 11.2812 4.5 11.2812 4.3125C11.2812 4.125 11.4375 3.96875 11.625 3.96875H15.3438C15.5312 3.96875 15.6875 4.125 15.6875 4.3125C15.6562 4.5 15.5 4.65625 15.3438 4.65625Z" fill="#5D5E61"/>
<path d="M10.125 4.65625H6.40625C6.21875 4.65625 6.0625 4.5 6.0625 4.3125C6.0625 4.125 6.21875 3.96875 6.40625 3.96875H10.125C10.3125 3.96875 10.4688 4.125 10.4688 4.3125C10.4375 4.5 10.2812 4.65625 10.125 4.65625Z" fill="#5D5E61"/>
</g>
<defs>
<clipPath id="clip0_1062_89482">
<rect width="24" height="24" fill="white"/>
</clipPath>
</defs>
</svg>
