<svg width="24" height="24" viewBox="0 0 24 24" fill="none" xmlns="http://www.w3.org/2000/svg">
<g clip-path="url(#clip0_1062_89557)">
<path d="M16.2857 15.9286H7.71427C7.51702 15.9286 7.35712 16.0885 7.35712 16.2857C7.35712 16.4829 7.51702 16.6429 7.71427 16.6429H16.2857C16.4829 16.6429 16.6428 16.483 16.6428 16.2857C16.6428 16.0885 16.4829 15.9286 16.2857 15.9286ZM17.3571 13.0714H6.64286C6.44561 13.0714 6.28571 13.2313 6.28571 13.4286C6.28571 13.6258 6.44561 13.7857 6.64286 13.7857H17.3571C17.5544 13.7857 17.7143 13.6258 17.7143 13.4286C17.7143 13.2313 17.5544 13.0714 17.3571 13.0714ZM4.14286 3.78571C4.14286 3.98296 3.98296 4.14286 3.78571 4.14286C3.58846 4.14286 3.42856 3.98296 3.42856 3.78571C3.42856 3.58846 3.58846 3.42856 3.78571 3.42856C3.98296 3.42856 4.14286 3.58849 4.14286 3.78571ZM4.14286 20.2143C4.14286 20.4115 3.98296 20.5714 3.78571 20.5714C3.58846 20.5714 3.42856 20.4115 3.42856 20.2143C3.42856 20.0171 3.58846 19.8571 3.78571 19.8571C3.98296 19.8571 4.14286 20.017 4.14286 20.2143ZM7.71427 8.07142H16.2857C16.4829 8.07142 16.6428 7.91152 16.6428 7.71427C16.6428 7.51702 16.4829 7.35712 16.2857 7.35712H7.71427C7.51702 7.35712 7.35712 7.51702 7.35712 7.71427C7.35716 7.91152 7.51706 8.07142 7.71427 8.07142Z" fill="#5D5E61"/>
<path d="M12 4.14286C7.66056 4.14286 4.14286 7.66056 4.14286 12C4.14286 16.3394 7.66056 19.8571 12 19.8571C16.3394 19.8571 19.8571 16.3394 19.8571 12C19.8522 7.66267 16.3373 4.14772 12 4.14286ZM7.71427 6.64286H16.2857C16.8774 6.64286 17.3571 7.1226 17.3571 7.71431C17.3571 8.30602 16.8774 8.78572 16.2857 8.78572H7.71427C7.12256 8.78572 6.64282 8.30598 6.64282 7.71431C6.64282 7.12263 7.1226 6.64286 7.71427 6.64286ZM6.64286 9.50001H17.3571C17.9488 9.50001 18.4286 9.97975 18.4286 10.5715C18.4286 11.1631 17.9488 11.6429 17.3571 11.6429H6.64286C6.05115 11.6429 5.57141 11.1631 5.57141 10.5715C5.57141 9.97975 6.05115 9.50001 6.64286 9.50001ZM16.2857 17.3571H7.71427C7.12256 17.3571 6.64282 16.8774 6.64282 16.2857C6.64282 15.694 7.12256 15.2143 7.71427 15.2143H16.2857C16.8774 15.2143 17.3571 15.694 17.3571 16.2857C17.3571 16.8774 16.8774 17.3571 16.2857 17.3571ZM17.3571 14.5H6.64286C6.05115 14.5 5.57141 14.0202 5.57141 13.4286C5.57141 12.8369 6.05115 12.3571 6.64286 12.3571H17.3571C17.9488 12.3571 18.4286 12.8369 18.4286 13.4286C18.4286 14.0202 17.9488 14.5 17.3571 14.5Z" fill="#5D5E61"/>
<path d="M6.64286 10.9286H17.3571C17.5544 10.9286 17.7143 10.7687 17.7143 10.5714C17.7143 10.3742 17.5544 10.2143 17.3571 10.2143H6.64286C6.44561 10.2143 6.28571 10.3742 6.28571 10.5714C6.28571 10.7687 6.44561 10.9286 6.64286 10.9286Z" fill="#5D5E61"/>
<path d="M22 3.07145C22 2.47974 21.5203 2 20.9286 2H3.07145C2.47974 2 2 2.47974 2 3.07145V20.9286C2 21.5203 2.47974 22 3.07145 22H20.9286C21.5203 22 22 21.5203 22 20.9286V3.07145ZM3.78571 2.7143C4.37742 2.7143 4.85715 3.19403 4.85715 3.78574C4.85715 4.37745 4.37742 4.85715 3.78571 4.85715C3.194 4.85715 2.7143 4.37742 2.7143 3.78571C2.7143 3.194 3.19403 2.7143 3.78571 2.7143ZM3.78571 21.2857C3.194 21.2857 2.71426 20.806 2.71426 20.2143C2.71426 19.6226 3.194 19.1429 3.78571 19.1429C4.37742 19.1429 4.85715 19.6226 4.85715 20.2143C4.85715 20.806 4.37742 21.2857 3.78571 21.2857ZM12 20.5714C7.2661 20.5714 3.42856 16.7339 3.42856 12C3.42856 7.2661 7.2661 3.42856 12 3.42856C16.7339 3.42856 20.5714 7.2661 20.5714 12C20.5658 16.7316 16.7316 20.5658 12 20.5714ZM20.2143 21.2857C19.6226 21.2857 19.1429 20.806 19.1429 20.2143C19.1429 19.6226 19.6226 19.1429 20.2143 19.1429C20.806 19.1429 21.2857 19.6226 21.2857 20.2143C21.2857 20.806 20.806 21.2857 20.2143 21.2857ZM20.2143 4.85715C19.6226 4.85715 19.1429 4.37742 19.1429 3.78571C19.1429 3.194 19.6226 2.71426 20.2143 2.71426C20.806 2.71426 21.2857 3.194 21.2857 3.78571C21.2857 4.37742 20.806 4.85715 20.2143 4.85715Z" fill="#5D5E61"/>
<path d="M20.5714 3.78571C20.5714 3.98296 20.4115 4.14286 20.2143 4.14286C20.017 4.14286 19.8571 3.98296 19.8571 3.78571C19.8571 3.58846 20.017 3.42856 20.2143 3.42856C20.4115 3.42856 20.5714 3.58849 20.5714 3.78571ZM20.5714 20.2143C20.5714 20.4115 20.4115 20.5714 20.2143 20.5714C20.017 20.5714 19.8571 20.4115 19.8571 20.2143C19.8571 20.0171 20.017 19.8571 20.2143 19.8571C20.4115 19.8571 20.5714 20.017 20.5714 20.2143Z" fill="#5D5E61"/>
</g>
<defs>
<clipPath id="clip0_1062_89557">
<rect width="24" height="24" fill="white"/>
</clipPath>
</defs>
</svg>
