<svg width="24" height="24" viewBox="0 0 24 24" fill="none" xmlns="http://www.w3.org/2000/svg">
<g clip-path="url(#clip0_1062_89568)">
<path d="M21.4033 7.39892L20.6345 3.86181C20.5248 3.35763 19.8989 3.17498 19.5356 3.5392L18.5894 4.48525C14.6642 1.03896 8.67065 1.1783 4.92585 4.9231C2.60335 7.2458 1.57116 10.5682 2.16456 13.8107C2.22878 14.1619 2.56542 14.4003 2.92385 14.3351C3.27831 14.2701 3.51303 13.9303 3.44827 13.5758C2.93194 10.7551 3.82928 7.86537 5.84846 5.84576C9.08444 2.61021 14.2527 2.46908 17.6668 5.40787L16.7673 6.30724C16.4032 6.67092 16.5855 7.29631 17.0899 7.40615L20.627 8.17521C21.0918 8.27588 21.5039 7.86177 21.4033 7.39892Z" fill="#5D5E61"/>
<path d="M21.8356 10.1839C21.7708 9.82925 21.4301 9.59581 21.0763 9.65952C20.7218 9.72452 20.4871 10.0644 20.5519 10.4188C21.068 13.2398 20.1706 16.1293 18.1514 18.1487C16.5112 19.789 14.3265 20.6923 11.9998 20.6923C9.89326 20.6923 7.90744 19.9452 6.33229 18.5875L7.23256 17.6872C7.59655 17.3237 7.41424 16.6981 6.90994 16.5883L3.37283 15.8194C2.90776 15.7189 2.49608 16.1331 2.59654 16.5957L3.36565 20.1329C3.47596 20.6396 4.10252 20.8181 4.46455 20.4555L5.41061 19.5094C7.29151 21.1607 9.6426 21.997 12.0001 21.997C14.5619 21.997 17.1237 21.0217 19.0741 19.0714C21.3966 16.7491 22.4288 13.4266 21.8356 10.1839Z" fill="#5D5E61"/>
<path d="M17.6067 10.1659L12.387 6.25113C12.1551 6.07742 11.8361 6.07742 11.6042 6.25113L6.38447 10.1659C5.8833 10.542 6.15193 11.3404 6.77592 11.3404H7.42838V15.9075C7.42838 16.268 7.72041 16.5557 8.08084 16.5557H15.9103C16.2708 16.5557 16.5628 16.268 16.5628 15.9075V11.3404H17.2153C17.8395 11.3404 18.1075 10.5417 17.6067 10.1659ZM8.7333 10.0355L11.9956 7.58879L15.2578 10.0355H8.7333Z" fill="#5D5E61"/>
</g>
<defs>
<clipPath id="clip0_1062_89568">
<rect width="24" height="24" fill="white"/>
</clipPath>
</defs>
</svg>
