<svg width="24" height="24" viewBox="0 0 24 24" fill="none" xmlns="http://www.w3.org/2000/svg">
<path d="M10.9967 10.9963C10.4423 11.5507 10.4423 12.4493 10.9967 13.0033C11.5507 13.5577 12.4498 13.5577 13.0038 13.0033C13.5582 12.4489 13.5582 11.5502 13.0038 10.9963C12.4493 10.4423 11.5507 10.4423 10.9967 10.9963ZM12 1C5.92472 1 1 5.92472 1 12C1 18.0753 5.92472 23 12 23C18.0753 23 23 18.0753 23 12C23 5.92472 18.0753 1 12 1ZM17.5949 7.56673L14.6688 13.9694C14.5273 14.279 14.279 14.5273 13.9694 14.6688L7.56718 17.5949C6.82867 17.9325 6.06754 17.1713 6.40508 16.4328L9.33161 10.0302C9.47315 9.72057 9.72145 9.47226 10.0311 9.33073L16.4333 6.40464C17.1718 6.06754 17.9325 6.82823 17.5949 7.56673Z" fill="#5D5E61"/>
</svg>
