<svg width="24" height="24" viewBox="0 0 24 24" fill="none" xmlns="http://www.w3.org/2000/svg">
<path d="M20.6328 2H3.36719C3.04359 2 2.78125 2.26234 2.78125 2.58594C2.78125 2.90953 3.04359 3.17188 3.36719 3.17188H4.38281V4.03125H19.6172V3.17188H20.6328C20.9564 3.17188 21.2188 2.90953 21.2188 2.58594C21.2188 2.26234 20.9564 2 20.6328 2ZM21.4141 13.0156H20.3984V6.375H21.4141C21.7377 6.375 22 6.11266 22 5.78906C22 5.46547 21.7377 5.20312 21.4141 5.20312H2.58594C2.26234 5.20312 2 5.46547 2 5.78906C2 6.11266 2.26234 6.375 2.58594 6.375H3.60156V13.0156H2.58594C2.26234 13.0156 2 13.278 2 13.6016C2 13.9252 2.26234 14.1875 2.58594 14.1875H21.4141C21.7377 14.1875 22 13.9252 22 13.6016C22 13.278 21.7377 13.0156 21.4141 13.0156ZM15.9062 7.15625H17.4688C17.7923 7.15625 18.0547 7.41859 18.0547 7.74219C18.0547 8.06578 17.7923 8.32812 17.4688 8.32812H15.9062C15.5827 8.32812 15.3203 8.06578 15.3203 7.74219C15.3203 7.41859 15.5827 7.15625 15.9062 7.15625ZM11.2188 7.15625H12.7812C13.1048 7.15625 13.3672 7.41859 13.3672 7.74219C13.3672 8.06578 13.1048 8.32812 12.7812 8.32812H11.2188C10.8952 8.32812 10.6328 8.06578 10.6328 7.74219C10.6328 7.41859 10.8952 7.15625 11.2188 7.15625ZM6.53125 7.15625H8.09375C8.41734 7.15625 8.67969 7.41859 8.67969 7.74219C8.67969 8.06578 8.41734 8.32812 8.09375 8.32812H6.53125C6.20766 8.32812 5.94531 8.06578 5.94531 7.74219C5.94531 7.41859 6.20766 7.15625 6.53125 7.15625ZM9.07031 13.0156H5.55469V9.69531C5.55469 9.37172 5.81703 9.10938 6.14062 9.10938H8.48438C8.80797 9.10938 9.07031 9.37172 9.07031 9.69531V13.0156ZM13.7578 13.0156H10.2422V9.69531C10.2422 9.37172 10.5045 9.10938 10.8281 9.10938H13.1719C13.4955 9.10938 13.7578 9.37172 13.7578 9.69531V13.0156ZM18.4453 13.0156H14.9297V9.69531C14.9297 9.37172 15.192 9.10938 15.5156 9.10938H17.8594C18.183 9.10938 18.4453 9.37172 18.4453 9.69531V13.0156Z" fill="#5D5E61"/>
<path d="M3.5625 15.2812H20.3984V21.375C20.3984 21.7202 20.1186 22 19.7734 22H4.1875C3.84232 22 3.5625 21.7202 3.5625 21.375V15.2812Z" fill="#5D5E61"/>
</svg>
