<svg width="24" height="24" viewBox="0 0 24 24" fill="none" xmlns="http://www.w3.org/2000/svg">
<path fill-rule="evenodd" clip-rule="evenodd" d="M12.4757 1.1912L22.6507 10.9445C22.8763 11.17 23 11.467 23 11.7704C23 12.402 22.4858 12.9163 21.8541 12.9163H20.25V21.1663C20.25 22.1791 19.4296 22.9995 18.4166 22.9995H5.58339C4.57045 22.9995 3.75 22.1791 3.75 21.1663V12.9163H2.14589C1.51429 12.9163 1 12.402 1 11.7704C1 11.467 1.12371 11.17 1.33924 10.9545L11.5243 1.1912C11.79 0.936267 12.21 0.936267 12.4757 1.1912ZM8.8868 12.9453H11.5956C11.6521 12.9453 11.7062 12.9677 11.7462 13.0075C11.7861 13.0472 11.8085 13.1012 11.8085 13.1574V16.8726C11.8085 16.9289 11.7861 16.9828 11.7462 17.0226C11.7062 17.0624 11.6521 17.0847 11.5956 17.0847H9.71459C9.65811 17.0847 9.60395 17.0624 9.56402 17.0226C9.52408 16.9828 9.50165 16.9289 9.50165 16.8726V16.6404C9.50165 15.8537 8.85909 15.214 8.06965 15.214H7.89488C7.77742 15.214 7.68237 15.1191 7.68237 15.0021V14.145C7.68237 13.4825 8.22161 12.9453 8.8868 12.9453ZM7.7207 15.6382H8.06965C8.62435 15.6382 9.07578 16.0876 9.07578 16.6404V19.3934C9.07578 19.5106 8.98049 19.6055 8.86284 19.6055H7.7207C7.166 19.6055 6.71484 19.1559 6.71484 18.6033V16.6404C6.71484 16.0876 7.166 15.6382 7.7207 15.6382ZM9.71285 19.6055H14.3301C14.4501 19.6055 14.5466 19.5069 14.543 19.3874C14.539 19.2567 14.5394 19.0209 14.5402 18.5546C14.5406 18.3332 14.5411 18.0599 14.5413 17.7212C14.5413 17.604 14.446 17.5089 14.3283 17.5089H9.71464C9.59702 17.5089 9.50165 17.604 9.5017 17.7212C9.50185 18.0615 9.50234 18.3358 9.50273 18.5577V18.5578C9.50356 19.022 9.50398 19.257 9.5 19.3874C9.49635 19.5069 9.59286 19.6055 9.71285 19.6055ZM16.3223 15.6382H15.9733C15.4186 15.6382 14.9672 16.0876 14.9672 16.6404V19.3934C14.9672 19.5106 15.0625 19.6055 15.1801 19.6055H16.3223C16.877 19.6055 17.3281 19.1559 17.3281 18.6033V16.6404C17.3281 16.0876 16.877 15.6382 16.3223 15.6382ZM15.1564 12.9453H12.4474C12.3909 12.9453 12.3367 12.9677 12.2968 13.0075C12.2569 13.0472 12.2344 13.1012 12.2344 13.1574V16.8726C12.2344 16.9289 12.2569 16.9828 12.2968 17.0226C12.3367 17.0624 12.3909 17.0847 12.4474 17.0847H14.3284C14.3849 17.0847 14.439 17.0624 14.479 17.0226C14.5189 16.9828 14.5413 16.9289 14.5413 16.8726V16.6404C14.5413 15.8665 15.1631 15.2349 15.9347 15.2145C15.9554 15.2141 16.0516 15.2139 16.1477 15.2139C16.1756 15.2139 16.2033 15.2085 16.2291 15.1978C16.255 15.1872 16.2784 15.1716 16.2982 15.1519C16.318 15.1322 16.3337 15.1089 16.3444 15.0831C16.3551 15.0574 16.3606 15.0299 16.3606 15.002V14.1448C16.3606 13.4824 15.8215 12.9453 15.1564 12.9453Z" fill="#5D5E61"/>
</svg>
