<svg width="24" height="24" viewBox="0 0 24 24" fill="none" xmlns="http://www.w3.org/2000/svg">
<g clip-path="url(#clip0_1062_89479)">
<path d="M17.8595 14.9296H15.5008C15.8726 14.4385 16.1017 13.8339 16.1017 13.1718C16.1017 12.848 15.8396 12.5859 15.5158 12.5859H14.3439C13.6819 12.5859 13.0773 12.815 12.5861 13.1868V10.1457C13.7514 9.91569 14.3439 8.9544 14.3439 7.27343C14.3439 5.18433 12.5689 2.37022 12.4934 2.25233C12.2782 1.91589 11.7221 1.91589 11.5069 2.25233C11.4314 2.37019 9.6564 5.18429 9.6564 7.27339C9.6564 8.95436 10.2489 9.91569 11.4142 10.1457V13.1867C10.923 12.815 10.3184 12.5859 9.6564 12.5859H8.48453C8.16066 12.5859 7.89859 12.848 7.89859 13.1718C7.89859 13.8339 8.12769 14.4385 8.49949 14.9296H6.14078C5.81691 14.9296 5.55484 15.1917 5.55484 15.5156C5.55484 15.8394 5.81691 16.1015 6.14078 16.1015H6.83234L7.06671 17.2734H16.9335L17.1679 16.1015H17.8595C18.1834 16.1015 18.4455 15.8394 18.4455 15.5156C18.4455 15.1917 18.1834 14.9296 17.8595 14.9296Z" fill="#5D5E61"/>
<path d="M15.8019 3.50027C15.7756 3.3023 15.6497 3.1312 15.4689 3.04706C15.2875 2.96351 15.0758 2.97667 14.9076 3.08312C14.8903 3.09406 14.7099 3.21007 14.4406 3.39991C14.6295 3.79695 14.8145 4.22905 14.9822 4.69273C15.2829 4.54823 15.5823 4.41663 15.8779 4.30011C15.8452 3.83273 15.8051 3.52437 15.8019 3.50027Z" fill="#5D5E61"/>
<path d="M9.17005 3.10488C9.00009 2.9973 8.79067 2.98413 8.60872 3.06882C8.4279 3.15351 8.302 3.32402 8.27571 3.52202C8.27251 3.5462 8.232 3.85878 8.19919 4.3314C8.47204 4.4407 8.74649 4.56198 9.02274 4.69488C9.19091 4.22691 9.37981 3.77706 9.5718 3.37511C9.33747 3.21167 9.18563 3.11476 9.17005 3.10488Z" fill="#5D5E61"/>
<path d="M19.1241 4.83695C18.9828 4.69562 18.7773 4.63726 18.5845 4.67902C18.501 4.69711 16.809 5.07761 15.3174 5.82988C15.432 6.31601 15.5158 6.80453 15.5158 7.27339C15.5158 9.46875 14.6508 10.498 13.7266 10.9761C14.0949 11.2361 14.4784 11.3692 14.8772 11.3692C15.5616 11.3692 16.2888 10.987 17.0527 10.2231C18.5296 8.74566 19.2523 5.51382 19.282 5.37652C19.3249 5.1814 19.2654 4.97828 19.1241 4.83695Z" fill="#5D5E61"/>
<path d="M8.48453 7.27339C8.48453 6.80452 8.56828 6.31601 8.68292 5.82987C7.19136 5.07761 5.49925 4.6971 5.41578 4.67901C5.22296 4.6378 5.01812 4.69616 4.87621 4.83694C4.73488 4.97827 4.67535 5.1814 4.71828 5.37651C4.74804 5.51386 5.47074 8.74565 6.94757 10.2231C7.71148 10.987 8.43874 11.3692 9.12253 11.3692C9.52156 11.3692 9.90523 11.2357 10.2736 10.976C9.34949 10.4979 8.48453 9.46858 8.48453 7.27339Z" fill="#5D5E61"/>
<path d="M7.30106 18.4453L7.91004 21.529C7.96497 21.8026 8.20532 22 8.48454 22H15.5158C15.795 22 16.0354 21.8026 16.0903 21.529L16.6993 18.4453H7.30106Z" fill="#5D5E61"/>
</g>
<defs>
<clipPath id="clip0_1062_89479">
<rect width="24" height="24" fill="white"/>
</clipPath>
</defs>
</svg>
