<svg width="24" height="24" viewBox="0 0 24 24" fill="none" xmlns="http://www.w3.org/2000/svg">
<g clip-path="url(#clip0_1062_89562)">
<path d="M20.7736 19.036H3.21301C2.54414 19.036 2 19.5801 2 20.249V20.787C2 21.4559 2.54414 22 3.21301 22H20.7736C21.4425 22 21.9866 21.4559 21.9866 20.787V20.249C21.9866 19.5801 21.4425 19.036 20.7736 19.036ZM20.7736 2H3.21301C2.54414 2 2 2.54418 2 3.21305V3.75102C2 4.41988 2.54414 4.96406 3.21301 4.96406H20.7736C21.4425 4.96406 21.9866 4.41988 21.9866 3.75102V3.21305C21.9866 2.54418 21.4425 2 20.7736 2ZM9.7473 8.62359H6.95937C6.88118 8.62359 6.80618 8.65466 6.75089 8.70995C6.69559 8.76525 6.66453 8.84024 6.66453 8.91844V11.1169C6.66453 11.1951 6.69559 11.2701 6.75089 11.3254C6.80618 11.3807 6.88118 11.4118 6.95937 11.4118H9.7473C9.8255 11.4118 9.9005 11.3807 9.95579 11.3254C10.0111 11.2701 10.0421 11.1951 10.0421 11.1169V8.91844C10.0421 8.84024 10.0111 8.76525 9.95578 8.70996C9.90049 8.65467 9.8255 8.6236 9.7473 8.62359Z" fill="#5D5E61"/>
<path d="M20.32 6.17125H3.59605C3.24687 6.17125 2.96379 6.45434 2.96379 6.80352V17.184C2.96379 17.5332 3.24687 17.8162 3.59605 17.8162H11.9941C12.3432 17.8162 12.6263 17.5332 12.6263 17.184V8.36281C12.6263 7.85949 13.0343 7.45152 13.5376 7.45152H17.9452C18.4485 7.45152 18.8565 7.85953 18.8565 8.36281V17.184C18.8565 17.5332 19.1396 17.8162 19.4888 17.8162H20.3201C20.6693 17.8162 20.9523 17.5332 20.9523 17.184V6.80352C20.9523 6.45434 20.6692 6.17125 20.32 6.17125ZM6.68121 13.8877C6.67926 13.9064 6.67652 13.9256 6.67262 13.9443C6.66871 13.963 6.66402 13.9818 6.65855 13.9998C6.65309 14.0182 6.64645 14.0365 6.63902 14.0541C6.62444 14.0895 6.60638 14.1234 6.58512 14.1553C6.57457 14.1709 6.56324 14.1865 6.55113 14.2014C6.53902 14.2162 6.52574 14.2307 6.51246 14.2439C6.49879 14.2577 6.48434 14.2705 6.46949 14.283C6.4399 14.3072 6.40797 14.3284 6.37418 14.3463C6.35738 14.3553 6.3398 14.3635 6.32223 14.3709C6.30465 14.3783 6.28629 14.3846 6.26832 14.3904C6.24996 14.3959 6.23121 14.4006 6.21246 14.4045C6.19371 14.408 6.17457 14.4111 6.15582 14.4131C6.06955 14.4214 5.98251 14.4105 5.90092 14.3813C5.81933 14.352 5.74521 14.3051 5.68387 14.2439C5.6702 14.2306 5.6573 14.2162 5.6452 14.2013C5.63309 14.1865 5.62137 14.1709 5.61082 14.1552C5.60027 14.1392 5.59051 14.1228 5.58152 14.1056C5.57254 14.0888 5.56434 14.0716 5.55691 14.0541C5.54988 14.0365 5.54324 14.0181 5.53777 13.9997C5.53191 13.9818 5.52723 13.963 5.52371 13.9443C5.5198 13.9255 5.51668 13.9064 5.51512 13.8876C5.51316 13.8681 5.51199 13.849 5.51199 13.8298C5.51199 13.8107 5.51316 13.7912 5.51512 13.772C5.51668 13.7533 5.5198 13.7341 5.52371 13.7154C5.52723 13.6967 5.53191 13.6779 5.53777 13.6595C5.54324 13.6416 5.54988 13.6232 5.55691 13.6056C5.56434 13.588 5.57254 13.5705 5.58152 13.5541C5.59051 13.5369 5.60027 13.5205 5.61082 13.5045C5.63245 13.4726 5.65689 13.4428 5.68387 13.4154C5.69715 13.4021 5.7116 13.3888 5.72644 13.3767C5.74129 13.3646 5.75691 13.3532 5.77293 13.3427C5.78855 13.3321 5.80535 13.322 5.82215 13.313C5.83895 13.3044 5.85613 13.2959 5.8741 13.2888C5.89168 13.2814 5.90965 13.2748 5.92801 13.2693C5.94598 13.2638 5.96473 13.2591 5.98348 13.2552C6.00223 13.2517 6.02137 13.2486 6.04051 13.2466C6.07879 13.2431 6.11746 13.2431 6.15578 13.2466C6.17453 13.2486 6.19367 13.2517 6.21242 13.2552C6.23117 13.2591 6.24992 13.2638 6.26828 13.2693C6.3048 13.2807 6.34023 13.2953 6.37414 13.313C6.39094 13.322 6.40734 13.3321 6.42336 13.3427C6.43937 13.3533 6.455 13.3646 6.46945 13.3767C6.4843 13.3888 6.49875 13.4021 6.51242 13.4154C6.5257 13.4291 6.53898 13.4435 6.55109 13.4584C6.5632 13.4732 6.57453 13.4888 6.58508 13.5045C6.59562 13.5205 6.60578 13.5369 6.61477 13.5541C6.62375 13.5705 6.63195 13.588 6.63898 13.6056C6.64641 13.6232 6.65305 13.6416 6.65852 13.6595C6.66398 13.6779 6.66867 13.6966 6.67258 13.7154C6.67648 13.7341 6.67922 13.7533 6.68117 13.772C6.68313 13.7912 6.68391 13.8107 6.68391 13.8298C6.68391 13.849 6.68316 13.8681 6.68121 13.8877ZM8.16594 13.8877C8.16398 13.9064 8.16125 13.9256 8.15734 13.9443C8.15344 13.963 8.14875 13.9818 8.14328 13.9998C8.13781 14.0182 8.13117 14.0365 8.12375 14.0541C8.10916 14.0895 8.09111 14.1234 8.06984 14.1553C8.0593 14.1709 8.04797 14.1865 8.03586 14.2014C8.02375 14.2162 8.01086 14.2307 7.99719 14.2439C7.98352 14.2577 7.96906 14.2705 7.95422 14.283C7.92463 14.3072 7.8927 14.3284 7.85891 14.3463C7.84211 14.3553 7.82453 14.3635 7.80695 14.3709C7.78937 14.3783 7.77102 14.3846 7.75305 14.3904C7.73469 14.3959 7.71594 14.4006 7.69719 14.4045C7.67844 14.408 7.6593 14.4111 7.64055 14.4131C7.55428 14.4213 7.46725 14.4105 7.38567 14.3812C7.30409 14.352 7.22997 14.3051 7.16859 14.2439C7.15492 14.2306 7.14203 14.2162 7.12992 14.2013C7.11781 14.1865 7.10609 14.1709 7.09555 14.1552C7.085 14.1392 7.07523 14.1228 7.06625 14.1056C7.05727 14.0888 7.04906 14.0716 7.04164 14.0541C7.03422 14.0365 7.02797 14.0181 7.0225 13.9997C7.01664 13.9818 7.01195 13.963 7.00844 13.9443C7.00453 13.9255 7.0018 13.9064 6.99984 13.8876C6.99789 13.8681 6.99672 13.849 6.99672 13.8298C6.99672 13.8107 6.99789 13.7912 6.99984 13.772C7.0018 13.7533 7.00453 13.7341 7.00844 13.7154C7.01195 13.6967 7.01664 13.6779 7.0225 13.6595C7.03341 13.623 7.04807 13.5876 7.06625 13.5541C7.07523 13.5369 7.085 13.5205 7.09555 13.5045C7.11717 13.4726 7.14162 13.4428 7.16859 13.4154C7.18187 13.4021 7.19633 13.3888 7.21117 13.3767C7.22602 13.3646 7.24164 13.3532 7.25766 13.3427C7.27328 13.3321 7.29008 13.322 7.30687 13.313C7.32367 13.3044 7.34086 13.2959 7.35883 13.2888C7.37641 13.2814 7.39437 13.2748 7.41273 13.2693C7.43109 13.2638 7.44945 13.2591 7.4682 13.2552C7.48695 13.2517 7.50609 13.2486 7.52523 13.2466C7.56352 13.2431 7.60219 13.2431 7.64051 13.2466C7.65926 13.2486 7.6784 13.2517 7.69715 13.2552C7.7159 13.2591 7.73465 13.2638 7.75301 13.2693C7.78953 13.2807 7.82496 13.2953 7.85887 13.313C7.87566 13.322 7.89207 13.3321 7.90809 13.3427C7.9241 13.3533 7.93973 13.3646 7.95418 13.3767C7.96902 13.3888 7.98348 13.4021 7.99715 13.4154C8.01082 13.4291 8.02371 13.4435 8.03582 13.4584C8.04793 13.4732 8.05926 13.4888 8.0698 13.5045C8.08035 13.5205 8.09051 13.5369 8.09949 13.5541C8.10848 13.5705 8.11668 13.588 8.12371 13.6056C8.13113 13.6232 8.13777 13.6416 8.14324 13.6595C8.14871 13.6779 8.1534 13.6966 8.1573 13.7154C8.16121 13.7341 8.16395 13.7533 8.1659 13.772C8.16785 13.7912 8.16863 13.8107 8.16863 13.8298C8.16863 13.849 8.16789 13.8681 8.16594 13.8877ZM9.65062 13.8877C9.64867 13.9064 9.64594 13.9256 9.64203 13.9443C9.63812 13.963 9.63344 13.9818 9.62797 13.9998C9.6225 14.0182 9.61586 14.0365 9.60844 14.0541C9.59385 14.0895 9.57579 14.1234 9.55453 14.1553C9.54398 14.1709 9.53266 14.1865 9.52055 14.2014C9.45925 14.2757 9.38064 14.3339 9.29162 14.3709C9.20259 14.4078 9.10586 14.4223 9.00992 14.4131C8.99078 14.4112 8.97164 14.408 8.95289 14.4045C8.93414 14.4006 8.91539 14.3959 8.89742 14.3905C8.87906 14.3846 8.86109 14.3784 8.84352 14.3709C8.82555 14.3636 8.80836 14.3554 8.79156 14.3463C8.77477 14.3374 8.75797 14.3276 8.74234 14.317C8.72633 14.3065 8.7107 14.2948 8.69586 14.283C8.68102 14.2706 8.66656 14.2577 8.65328 14.244C8.63961 14.2307 8.62672 14.2163 8.61461 14.2014C8.6025 14.1866 8.59078 14.1709 8.58023 14.1553C8.56969 14.1393 8.55992 14.1229 8.55094 14.1057C8.54195 14.0889 8.53375 14.0717 8.52633 14.0541C8.5193 14.0366 8.51266 14.0182 8.50719 13.9998C8.50133 13.9818 8.49664 13.9631 8.49312 13.9443C8.48922 13.9256 8.48648 13.9064 8.48453 13.8877C8.48258 13.8682 8.48141 13.8491 8.48141 13.8299C8.48141 13.8108 8.48258 13.7913 8.48453 13.7721C8.48648 13.7534 8.48922 13.7342 8.49312 13.7155C8.49664 13.6968 8.50133 13.678 8.50719 13.6596C8.51266 13.6416 8.5193 13.6233 8.52633 13.6057C8.53375 13.5881 8.54195 13.5706 8.55094 13.5541C8.55992 13.537 8.56969 13.5206 8.58023 13.5045C8.60186 13.4727 8.62631 13.4429 8.65328 13.4154C8.66656 13.4021 8.68102 13.3889 8.69586 13.3768C8.7107 13.3646 8.72633 13.3533 8.74234 13.3428C8.75797 13.3322 8.77477 13.3221 8.79156 13.3131C8.80836 13.3045 8.82555 13.2959 8.84352 13.2889C8.86109 13.2815 8.87906 13.2748 8.89742 13.2693C8.91539 13.2639 8.93414 13.2592 8.95289 13.2553C8.97164 13.2518 8.99078 13.2487 9.00992 13.2467C9.0482 13.2432 9.08687 13.2432 9.1252 13.2467C9.14395 13.2487 9.16309 13.2518 9.18184 13.2553C9.20059 13.2592 9.21934 13.2639 9.2377 13.2693C9.27422 13.2807 9.30965 13.2954 9.34355 13.3131C9.36035 13.3221 9.37676 13.3322 9.39277 13.3428C9.40879 13.3534 9.42441 13.3647 9.43887 13.3768C9.45371 13.3889 9.46816 13.4021 9.48184 13.4154C9.49512 13.4291 9.5084 13.4436 9.52051 13.4584C9.53262 13.4733 9.54394 13.4889 9.55449 13.5045C9.56504 13.5205 9.5752 13.537 9.58418 13.5541C9.59316 13.5706 9.60137 13.5881 9.6084 13.6057C9.61582 13.6233 9.62246 13.6416 9.62793 13.6596C9.6334 13.678 9.63809 13.6967 9.64199 13.7155C9.6459 13.7342 9.64863 13.7534 9.65059 13.7721C9.65254 13.7913 9.65332 13.8108 9.65332 13.8299C9.65332 13.8491 9.65258 13.8681 9.65062 13.8877ZM11.1354 13.8877C11.1334 13.9064 11.1307 13.9256 11.1268 13.9443C11.1229 13.963 11.1182 13.9818 11.1127 13.9998C11.1072 14.0182 11.1006 14.0365 11.0932 14.0541C11.0786 14.0895 11.0605 14.1234 11.0393 14.1553C11.0287 14.1709 11.0174 14.1865 11.0053 14.2014C10.9932 14.2162 10.9803 14.2307 10.9666 14.2439C10.9052 14.3051 10.8311 14.352 10.7495 14.3813C10.6679 14.4105 10.5809 14.4214 10.4946 14.4131C10.4755 14.4112 10.4564 14.408 10.4376 14.4045C10.4189 14.4006 10.4001 14.3959 10.3821 14.3905C10.3638 14.3846 10.3458 14.3784 10.3282 14.3709C10.3103 14.3636 10.2931 14.3554 10.2763 14.3463C10.2595 14.3374 10.2427 14.3276 10.2271 14.317C10.2111 14.3065 10.1954 14.2948 10.1806 14.283C10.1657 14.2706 10.1513 14.2577 10.1376 14.244C10.1243 14.2307 10.1114 14.2163 10.0989 14.2014C10.0872 14.1866 10.0755 14.1709 10.065 14.1553C10.0544 14.1393 10.0446 14.1229 10.0357 14.1057C10.0267 14.0889 10.0185 14.0717 10.0111 14.0541C10.004 14.0366 9.99738 14.0182 9.99191 13.9998C9.98605 13.9818 9.98137 13.9631 9.97785 13.9443C9.97395 13.9256 9.97121 13.9064 9.96926 13.8877C9.9673 13.8682 9.96613 13.8491 9.96613 13.8299C9.96613 13.8108 9.9673 13.7913 9.96926 13.7721C9.97121 13.7534 9.97395 13.7342 9.97785 13.7155C9.98137 13.6968 9.98605 13.678 9.99191 13.6596C9.99738 13.6416 10.004 13.6233 10.0111 13.6057C10.0185 13.5881 10.0267 13.5706 10.0357 13.5541C10.0446 13.537 10.0544 13.5206 10.065 13.5045C10.0755 13.4889 10.0872 13.4733 10.0989 13.4584C10.1114 13.4436 10.1243 13.4291 10.1376 13.4154C10.1648 13.3882 10.1948 13.3639 10.2271 13.3428C10.2427 13.3322 10.2595 13.3221 10.2763 13.3131C10.2931 13.3045 10.3103 13.2959 10.3282 13.2889C10.3458 13.2815 10.3638 13.2748 10.3821 13.2693C10.4001 13.2639 10.4189 13.2592 10.4376 13.2553C10.4564 13.2518 10.4755 13.2487 10.4946 13.2467C10.5329 13.2432 10.5716 13.2432 10.6099 13.2467C10.6287 13.2487 10.6478 13.2518 10.6666 13.2553C10.6853 13.2592 10.7041 13.2639 10.7224 13.2693C10.7589 13.2807 10.7944 13.2954 10.8283 13.3131C10.8451 13.3221 10.8615 13.3322 10.8775 13.3428C10.8935 13.3534 10.9091 13.3647 10.9236 13.3768C10.9384 13.3889 10.9529 13.4021 10.9666 13.4154C10.9802 13.4291 10.9931 13.4436 11.0052 13.4584C11.0173 13.4733 11.0287 13.4889 11.0392 13.5045C11.0498 13.5205 11.0599 13.537 11.0689 13.5541C11.0779 13.5706 11.0861 13.5881 11.0931 13.6057C11.1005 13.6233 11.1072 13.6416 11.1127 13.6596C11.1181 13.678 11.1228 13.6967 11.1267 13.7155C11.1306 13.7342 11.1334 13.7534 11.1353 13.7721C11.1373 13.7913 11.138 13.8108 11.138 13.8299C11.138 13.8491 11.1373 13.8681 11.1354 13.8877ZM11.2143 11.4584C11.2143 12.079 10.7094 12.5839 10.0887 12.5839H6.61793C5.9973 12.5839 5.49238 12.079 5.49238 11.4584V8.57695C5.49238 7.95633 5.9973 7.45141 6.61793 7.45141H10.0887C10.7094 7.45141 11.2143 7.95633 11.2143 8.57695V11.4584Z" fill="#5D5E61"/>
<path d="M17.3895 8.62359H14.0933C14.0151 8.62359 13.9401 8.65466 13.8848 8.70995C13.8295 8.76525 13.7984 8.84024 13.7984 8.91844V17.184C13.7984 17.5332 14.0815 17.8162 14.4307 17.8162H17.0521C17.4013 17.8162 17.6844 17.5332 17.6844 17.184V8.91844C17.6844 8.84024 17.6533 8.76525 17.598 8.70995C17.5427 8.65466 17.4677 8.62359 17.3895 8.62359ZM16.9738 14.5402C16.9605 14.5534 16.9461 14.5668 16.9312 14.5788C16.9164 14.5909 16.9007 14.6023 16.8847 14.6128C16.8691 14.6234 16.8523 14.6331 16.8355 14.6421C16.8187 14.6511 16.8011 14.6593 16.7836 14.6667C16.766 14.6741 16.748 14.6804 16.7296 14.6863C16.7113 14.6917 16.6925 14.6964 16.6742 14.7003C16.6554 14.7038 16.6363 14.707 16.6171 14.7089C16.598 14.7109 16.5789 14.7116 16.5597 14.7116C16.5406 14.7116 16.5211 14.7108 16.5019 14.7089C16.4832 14.707 16.464 14.7038 16.4453 14.7003C16.4265 14.6964 16.4078 14.6917 16.3894 14.6863C16.3711 14.6804 16.3531 14.6741 16.3355 14.6667C16.3179 14.6593 16.3004 14.6511 16.2836 14.6421C16.2668 14.6331 16.2504 14.6234 16.2343 14.6128C16.2183 14.6023 16.2028 14.5909 16.1879 14.5788C16.173 14.5668 16.1586 14.5534 16.1453 14.5402C16.0842 14.4787 16.0375 14.4045 16.0083 14.323C15.9791 14.2414 15.9683 14.1544 15.9765 14.0682C15.9784 14.0491 15.9812 14.03 15.9851 14.0112C15.989 13.9925 15.9937 13.9737 15.9991 13.9557C16.0046 13.9373 16.0113 13.919 16.0187 13.9014C16.0257 13.8838 16.0339 13.8666 16.0429 13.8498C16.0519 13.8327 16.0616 13.8163 16.0722 13.8002C16.0831 13.7846 16.0945 13.7689 16.1066 13.7541C16.1187 13.7393 16.1316 13.7248 16.1452 13.7115C16.1585 13.6979 16.173 13.685 16.1878 13.6725C16.2027 13.6607 16.2183 13.649 16.2343 13.6385C16.2503 13.6279 16.2667 13.6182 16.2835 13.6092C16.3003 13.6002 16.3179 13.592 16.3355 13.5846C16.353 13.5772 16.371 13.5709 16.3894 13.565C16.4077 13.5596 16.4265 13.5549 16.4452 13.551C16.464 13.5474 16.4829 13.5445 16.5019 13.5424C16.5402 13.5389 16.5788 13.5389 16.6171 13.5424C16.6363 13.5443 16.6554 13.5475 16.6742 13.551C16.6925 13.5549 16.7113 13.5596 16.7296 13.565C16.748 13.5709 16.766 13.5772 16.7836 13.5846C16.8011 13.592 16.8187 13.6002 16.8355 13.6092C16.8523 13.6182 16.8691 13.6279 16.8847 13.6385C16.9007 13.6491 16.9164 13.6607 16.9312 13.6725C16.9461 13.685 16.9605 13.6979 16.9738 13.7115C16.9875 13.7248 17.0004 13.7393 17.0125 13.7541C17.0246 13.7689 17.0363 13.7846 17.0468 13.8002C17.0574 13.8162 17.0671 13.8327 17.0761 13.8498C17.0851 13.8666 17.0933 13.8838 17.1007 13.9014C17.1078 13.919 17.1144 13.9373 17.1199 13.9557C17.1254 13.9737 17.1304 13.9924 17.1339 14.0112C17.1379 14.0299 17.1406 14.0491 17.1425 14.0682C17.1445 14.0873 17.1457 14.1065 17.1457 14.1257C17.1451 14.2811 17.0834 14.43 16.9738 14.5402Z" fill="#5D5E61"/>
</g>
<defs>
<clipPath id="clip0_1062_89562">
<rect width="24" height="24" fill="white"/>
</clipPath>
</defs>
</svg>
