<svg width="24" height="24" viewBox="0 0 24 24" fill="none" xmlns="http://www.w3.org/2000/svg">
<g clip-path="url(#clip0_1062_89481)">
<path d="M4.375 19.4688V20.2813C4.375 20.4688 4.53125 20.625 4.71875 20.625H6.6875C6.875 20.625 7.03125 20.4688 7.03125 20.2813V19.4688H4.375ZM17 19.4688V20.2813C17 20.4688 17.1562 20.625 17.3438 20.625H19.3125C19.5 20.625 19.6562 20.4688 19.6562 20.2813V19.4688H17ZM18.3125 3.375C18.0625 3.375 17.8438 3.59375 17.8438 3.84375V11H18.8125V3.84375C18.7812 3.59375 18.5938 3.375 18.3125 3.375ZM19.0625 11.6875H17.5312C17.1562 11.6875 16.875 11.9688 16.875 12.3438V12.5313H19.7188V12.3438C19.7188 12 19.4375 11.6875 19.0625 11.6875ZM5.6875 3.375C5.40625 3.375 5.21875 3.59375 5.21875 3.84375V11H6.1875V3.84375C6.15625 3.59375 5.9375 3.375 5.6875 3.375ZM6.4375 11.6875H4.9375C4.5625 11.6875 4.28125 11.9688 4.28125 12.3438V12.5313H7.125V12.3438C7.09375 12 6.8125 11.6875 6.4375 11.6875ZM21 13.1875H3C2.4375 13.1875 2 13.625 2 14.1875V17.8125C2 18.375 2.4375 18.8125 3 18.8125H21C21.5625 18.8125 22 18.375 22 17.8125V14.1875C22 13.625 21.5625 13.1875 21 13.1875ZM21 17.75H3C2.8125 17.75 2.65625 17.5938 2.65625 17.4063C2.65625 17.2188 2.8125 17.0625 3 17.0625H21C21.1875 17.0625 21.3438 17.2188 21.3438 17.4063C21.3438 17.5938 21.1875 17.75 21 17.75ZM3.3125 16C3.3125 15.8125 3.46875 15.6563 3.65625 15.6563H4.1875C4.375 15.6563 4.53125 15.8125 4.53125 16C4.53125 16.1875 4.375 16.3438 4.1875 16.3438H3.625C3.4375 16.3438 3.3125 16.1875 3.3125 16ZM5.09375 16C5.09375 15.8125 5.25 15.6563 5.4375 15.6563H5.96875C6.15625 15.6563 6.3125 15.8125 6.3125 16C6.3125 16.1875 6.15625 16.3438 5.96875 16.3438H5.4375C5.21875 16.3438 5.09375 16.1875 5.09375 16ZM6.875 16C6.875 15.8125 7.03125 15.6563 7.21875 15.6563H7.75C7.9375 15.6563 8.09375 15.8125 8.09375 16C8.09375 16.1875 7.9375 16.3438 7.75 16.3438H7.21875C7 16.3438 6.875 16.1875 6.875 16ZM8.65625 16C8.65625 15.8125 8.8125 15.6563 9 15.6563H9.5C9.6875 15.6563 9.84375 15.8125 9.84375 16C9.84375 16.1875 9.6875 16.3438 9.5 16.3438H8.96875C8.78125 16.3438 8.65625 16.1875 8.65625 16ZM21 14.9062H3C2.8125 14.9062 2.65625 14.75 2.65625 14.5625C2.65625 14.375 2.8125 14.2188 3 14.2188H21C21.1875 14.2188 21.3438 14.375 21.3438 14.5625C21.3438 14.7813 21.1875 14.9062 21 14.9062Z" fill="#5D5E61"/>
<path d="M8.25 6.84375C10.3125 4.78125 13.7188 4.78125 15.7812 6.84375C15.8438 6.90625 15.9375 6.9375 16.0313 6.9375C16.125 6.9375 16.1875 6.90625 16.2812 6.84375C16.4062 6.71875 16.4062 6.5 16.2812 6.375C13.9375 4.03125 10.1562 4.03125 7.8125 6.375C7.6875 6.5 7.6875 6.71875 7.8125 6.84375C7.90625 6.96875 8.09375 6.96875 8.25 6.84375Z" fill="#5D5E61"/>
<path d="M15.0625 7.875C15.1562 7.875 15.2188 7.84375 15.3125 7.78125C15.4375 7.65625 15.4375 7.4375 15.3125 7.3125C14.4375 6.4375 13.25 5.9375 12.0312 5.9375C10.7812 5.9375 9.625 6.40625 8.75 7.3125C8.625 7.4375 8.625 7.65625 8.75 7.78125C8.875 7.90625 9.09375 7.90625 9.21875 7.78125C10.7812 6.21875 13.3125 6.21875 14.875 7.78125C14.875 7.84375 14.9688 7.875 15.0625 7.875Z" fill="#5D5E61"/>
<path d="M14.125 8.84375C14.2188 8.84375 14.2812 8.8125 14.375 8.75C14.5 8.625 14.5 8.40625 14.375 8.28125C13.0938 6.96875 10.9688 6.96875 9.65625 8.28125C9.53125 8.40625 9.53125 8.625 9.65625 8.75C9.78125 8.875 10 8.875 10.125 8.75C11.1562 7.71875 12.8438 7.71875 13.875 8.75C13.9375 8.8125 14.0312 8.84375 14.125 8.84375Z" fill="#5D5E61"/>
<path d="M10.5938 9.21875C10.4688 9.34375 10.4688 9.5625 10.5938 9.6875C10.7188 9.8125 10.9375 9.8125 11.0625 9.6875C11.5625 9.1875 12.4375 9.1875 12.9375 9.6875C13 9.75 13.0938 9.78125 13.1875 9.78125C13.2812 9.78125 13.3438 9.75 13.4375 9.6875C13.5625 9.5625 13.5625 9.34375 13.4375 9.21875C13.0625 8.84375 12.5625 8.625 12.0312 8.625C11.4688 8.625 10.9688 8.84375 10.5938 9.21875Z" fill="#5D5E61"/>
</g>
<defs>
<clipPath id="clip0_1062_89481">
<rect width="24" height="24" fill="white"/>
</clipPath>
</defs>
</svg>
