<svg width="24" height="24" viewBox="0 0 24 24" fill="none" xmlns="http://www.w3.org/2000/svg">
<g clip-path="url(#clip0_1062_89519)">
<path d="M9.16245 15.1135H14.988V17.1058H9.16245V15.1135Z" fill="#5D5E61"/>
<path d="M9.16245 17.5745H14.988V20.8816H9.16245V17.5745Z" fill="#5D5E61"/>
<path d="M20.6068 12.9904H15.4567V20.8816H20.6068C20.7518 20.8815 20.8908 20.8238 20.9933 20.7213C21.0959 20.6188 21.1535 20.4798 21.1537 20.3348V13.5372C21.1535 13.3922 21.0959 13.2532 20.9934 13.1507C20.8908 13.0482 20.7518 12.9905 20.6068 12.9904ZM20.0464 13.9279H16.7638C16.7016 13.9279 16.642 13.9032 16.5981 13.8592C16.5541 13.8153 16.5294 13.7556 16.5294 13.6935C16.5294 13.6313 16.5541 13.5717 16.5981 13.5278C16.642 13.4838 16.7016 13.4591 16.7638 13.4591H20.0464C20.1086 13.4591 20.1682 13.4838 20.2122 13.5278C20.2561 13.5717 20.2808 13.6313 20.2808 13.6935C20.2808 13.7556 20.2561 13.8153 20.2122 13.8592C20.1682 13.9032 20.1086 13.9279 20.0464 13.9279Z" fill="#5D5E61"/>
<path d="M9.16245 12.9904H14.988V14.6448H9.16245V12.9904Z" fill="#5D5E61"/>
<path d="M2.89632 13.5372V20.3348C2.89648 20.4798 2.95415 20.6188 3.05668 20.7213C3.1592 20.8238 3.2982 20.8815 3.44319 20.8816H8.6937V12.9904H3.44319C3.2982 12.9905 3.15919 13.0482 3.05667 13.1507C2.95414 13.2532 2.89647 13.3922 2.89632 13.5372ZM4.31546 13.4591H7.59808C7.66024 13.4591 7.71985 13.4838 7.7638 13.5278C7.80776 13.5717 7.83245 13.6313 7.83245 13.6935C7.83245 13.7556 7.80776 13.8153 7.7638 13.8592C7.71985 13.9032 7.66024 13.9279 7.59808 13.9279H4.31546C4.2533 13.9279 4.19368 13.9032 4.14973 13.8592C4.10578 13.8153 4.08108 13.7556 4.08108 13.6935C4.08108 13.6313 4.10578 13.5717 4.14973 13.5278C4.19368 13.4838 4.2533 13.4591 4.31546 13.4591Z" fill="#5D5E61"/>
<path d="M10.899 6.18262H13.0732V7.21551H10.899V6.18262Z" fill="#5D5E61"/>
<path d="M8.9623 3.11829H14.988V5.71383H8.9623V3.11829Z" fill="#5D5E61"/>
<path d="M15.4567 7.21567H21.1038V3.11829H15.4567V7.21567ZM17.4485 6.34762H19.5669C19.6291 6.34762 19.6887 6.37231 19.7327 6.41627C19.7766 6.46022 19.8013 6.51984 19.8013 6.582C19.8013 6.64416 19.7766 6.70377 19.7327 6.74773C19.6887 6.79168 19.6291 6.81637 19.5669 6.81637H17.4485C17.3863 6.81637 17.3267 6.79168 17.2827 6.74773C17.2388 6.70377 17.2141 6.64416 17.2141 6.582C17.2141 6.51984 17.2388 6.46022 17.2827 6.41627C17.3267 6.37231 17.3863 6.34762 17.4485 6.34762Z" fill="#5D5E61"/>
<path d="M10.2273 9.20278H13.7448L13.1478 7.68426H10.8243L10.2273 9.20278Z" fill="#5D5E61"/>
<path d="M8.49355 3.11829H2.84644V7.21567H8.49355V3.11829ZM6.75276 6.81637H4.63433C4.57217 6.81637 4.51255 6.79168 4.4686 6.74773C4.42464 6.70377 4.39995 6.64416 4.39995 6.582C4.39995 6.51984 4.42464 6.46022 4.4686 6.41627C4.51255 6.37232 4.57217 6.34762 4.63433 6.34762H6.75276C6.81492 6.34762 6.87454 6.37232 6.91849 6.41627C6.96245 6.46022 6.98714 6.51984 6.98714 6.582C6.98714 6.64416 6.96245 6.70377 6.91849 6.74773C6.87454 6.79168 6.81492 6.81637 6.75276 6.81637Z" fill="#5D5E61"/>
</g>
<defs>
<clipPath id="clip0_1062_89519">
<rect width="24" height="24" fill="white"/>
</clipPath>
</defs>
</svg>
