<svg width="24" height="24" viewBox="0 0 24 24" fill="none" xmlns="http://www.w3.org/2000/svg">
<g clip-path="url(#clip0_1062_89484)">
<path d="M8.4375 11.1562H7.46875C7.375 11.1562 7.3125 11.2188 7.3125 11.3125V11.5312H8.5625V11.3125C8.59375 11.2188 8.53125 11.1562 8.4375 11.1562ZM5.15625 11.1562H4.1875C4.125 11.1562 4.03125 11.2188 4.03125 11.3125V11.5312H5.28125V11.3125C5.3125 11.2188 5.25 11.1562 5.15625 11.1562ZM2.46875 17.4375V21.625H9.5V17.4375H2.46875ZM2.46875 14.7188V16.7812H9.5V15.7188C9.5 15.5313 9.65625 15.375 9.84375 15.375C10.0312 15.375 10.1875 15.5313 10.1875 15.7188V21.6562H22V14.7188H2.46875ZM4.4375 16.0938H3.8125C3.625 16.0938 3.46875 15.9375 3.46875 15.75C3.46875 15.5625 3.625 15.4063 3.8125 15.4063H4.4375C4.625 15.4063 4.78125 15.5625 4.78125 15.75C4.75 15.9375 4.59375 16.0938 4.4375 16.0938ZM6.28125 16.0938H5.65625C5.46875 16.0938 5.3125 15.9375 5.3125 15.75C5.3125 15.5625 5.46875 15.4063 5.65625 15.4063H6.28125C6.46875 15.4063 6.625 15.5625 6.625 15.75C6.59375 15.9375 6.46875 16.0938 6.28125 16.0938ZM8.125 16.0938H7.5C7.3125 16.0938 7.15625 15.9375 7.15625 15.75C7.15625 15.5625 7.3125 15.4063 7.5 15.4063H8.125C8.3125 15.4063 8.46875 15.5625 8.46875 15.75C8.46875 15.9375 8.3125 16.0938 8.125 16.0938ZM14.9062 18.125C14.9062 18.3125 14.75 18.4688 14.5625 18.4688C14.375 18.4688 14.2187 18.3125 14.2187 18.125V17.0938C14.2187 16.9062 14.375 16.75 14.5625 16.75C14.75 16.75 14.9062 16.9062 14.9062 17.0938V18.125ZM16.2188 20.7812C16.2188 20.9688 16.0625 21.125 15.875 21.125C15.6875 21.125 15.5312 20.9688 15.5312 20.7812V15.5938C15.5312 15.4062 15.6875 15.25 15.875 15.25C16.0625 15.25 16.2188 15.4062 16.2188 15.5938V20.7812ZM17.5312 18.125C17.5312 18.3125 17.375 18.4688 17.1875 18.4688C17 18.4688 16.8438 18.3125 16.8438 18.125V17.0938C16.8438 16.9062 17 16.75 17.1875 16.75C17.375 16.75 17.5312 16.9062 17.5312 17.0938V18.125ZM21.3125 12.1875H3.125C2.75 12.1875 2.4375 12.5 2.4375 12.875V14.0625H22V12.875C22 12.5 21.6875 12.1875 21.3125 12.1875Z" fill="#5D5E61"/>
<path d="M10.625 6.40625H4.125C3.9375 6.40625 3.78125 6.25 3.78125 6.0625C3.78125 5.875 3.9375 5.71875 4.125 5.71875H10.2812L7.65625 2.59375C7.53125 2.4375 7.34375 2.34375 7.125 2.34375H5.5C5.28125 2.34375 5.09375 2.4375 4.96875 2.59375L2.15625 6.03125C2.0625 6.125 2 6.28125 2 6.4375V7.09375C2 7.46875 2.3125 7.78125 2.6875 7.78125H9.96875C10.3438 7.78125 10.6562 7.46875 10.6562 7.09375L10.625 6.40625C10.625 6.4375 10.625 6.4375 10.625 6.40625Z" fill="#5D5E61"/>
<path d="M21.6562 2.34375H13.7188C13.5312 2.34375 13.375 2.5 13.375 2.6875V7.4375C13.375 7.625 13.5312 7.78125 13.7188 7.78125H21.6562C21.8438 7.78125 22 7.625 22 7.4375V2.6875C22 2.5 21.8438 2.34375 21.6562 2.34375ZM16.9688 5.4375C16.9688 5.625 16.8125 5.78125 16.625 5.78125C16.4375 5.78125 16.2812 5.625 16.2812 5.4375V4.71875C16.2812 4.53125 16.4375 4.375 16.625 4.375C16.8125 4.375 16.9688 4.53125 16.9688 4.71875V5.4375ZM18.0312 7C18.0312 7.1875 17.875 7.34375 17.6875 7.34375C17.5 7.34375 17.3437 7.1875 17.3437 7V3.15625C17.3437 2.96875 17.5 2.8125 17.6875 2.8125C17.875 2.8125 18.0312 2.96875 18.0312 3.15625V7ZM19.0625 5.4375C19.0625 5.625 18.9062 5.78125 18.7188 5.78125C18.5312 5.78125 18.375 5.625 18.375 5.4375V4.71875C18.375 4.53125 18.5312 4.375 18.7188 4.375C18.9062 4.375 19.0625 4.53125 19.0625 4.71875V5.4375Z" fill="#5D5E61"/>
</g>
<defs>
<clipPath id="clip0_1062_89484">
<rect width="24" height="24" fill="white"/>
</clipPath>
</defs>
</svg>
