<svg width="24" height="24" viewBox="0 0 24 24" fill="none" xmlns="http://www.w3.org/2000/svg">
<g clip-path="url(#clip0_1062_89602)">
<path fill-rule="evenodd" clip-rule="evenodd" d="M5.91818 4.41373C5.99481 4.41189 6.06932 4.38822 6.13297 4.34551C6.19661 4.3028 6.24675 4.24282 6.2775 4.17261C6.30824 4.1024 6.31832 4.02487 6.30654 3.94913C6.29476 3.87339 6.26162 3.80259 6.21101 3.74503L3.94847 1.13505C3.91232 1.0927 3.86743 1.0587 3.81687 1.03539C3.76632 1.01207 3.71131 1 3.65564 1C3.59997 1 3.54496 1.01207 3.49441 1.03539C3.44386 1.0587 3.39896 1.0927 3.36282 1.13505L1.10032 3.74503C1.04972 3.80259 1.01659 3.8734 1.00483 3.94913C0.99306 4.02486 1.00314 4.10238 1.03388 4.17258C1.06462 4.24279 1.11475 4.30277 1.17839 4.34548C1.24202 4.3882 1.31652 4.41187 1.39314 4.41373H2.89705V12.7583H1.39314C1.31651 12.7602 1.242 12.7838 1.17836 12.8266C1.11471 12.8693 1.06457 12.9292 1.03383 12.9995C1.00308 13.0697 0.993006 13.1472 1.00478 13.2229C1.01656 13.2987 1.0497 13.3695 1.10032 13.427L3.36286 16.037C3.39901 16.0794 3.4439 16.1133 3.49446 16.1367C3.54501 16.16 3.60002 16.172 3.65568 16.172C3.71135 16.172 3.76636 16.16 3.81691 16.1367C3.86746 16.1133 3.91236 16.0794 3.94851 16.037L6.21105 13.427C6.26165 13.3695 6.29477 13.2987 6.30654 13.2229C6.31831 13.1472 6.30823 13.0697 6.27749 12.9995C6.24674 12.9293 6.19661 12.8693 6.13298 12.8266C6.06934 12.7839 5.99485 12.7602 5.91823 12.7583H4.41428V4.41373H5.91818ZM22.8649 20.0515L20.255 17.7889C20.1974 17.7383 20.1266 17.7052 20.0509 17.6934C19.9751 17.6817 19.8976 17.6918 19.8274 17.7225C19.7572 17.7532 19.6972 17.8034 19.6545 17.867C19.6118 17.9306 19.5881 18.0051 19.5863 18.0818V19.5857H11.2417V18.0818C11.2398 18.0051 11.2161 17.9306 11.1734 17.867C11.1307 17.8033 11.0707 17.7532 11.0005 17.7224C10.9303 17.6917 10.8528 17.6816 10.7771 17.6934C10.7013 17.7052 10.6305 17.7383 10.5729 17.7889L7.96297 20.0515C7.92063 20.0876 7.88664 20.1325 7.86333 20.1831C7.84002 20.2336 7.82794 20.2886 7.82794 20.3443C7.82794 20.4 7.84002 20.455 7.86333 20.5055C7.88664 20.5561 7.92063 20.601 7.96297 20.6371L10.5729 22.8997C10.6305 22.9503 10.7013 22.9834 10.7771 22.9952C10.8528 23.0069 10.9303 22.9968 11.0005 22.9661C11.0707 22.9354 11.1307 22.8852 11.1734 22.8216C11.2161 22.758 11.2398 22.6835 11.2417 22.6068V21.1029H19.5863V22.6068C19.5881 22.6835 19.6118 22.758 19.6545 22.8216C19.6972 22.8853 19.7572 22.9354 19.8274 22.9662C19.8976 22.9969 19.9751 23.007 20.0509 22.9952C20.1266 22.9834 20.1974 22.9503 20.255 22.8997L22.8649 20.6371C22.9073 20.601 22.9413 20.5561 22.9646 20.5055C22.9879 20.455 23 20.4 23 20.3443C23 20.2886 22.9879 20.2336 22.9646 20.1831C22.9413 20.1325 22.9073 20.0876 22.8649 20.0515ZM22.6207 8.20669V1.75859C22.6207 1.65799 22.5807 1.56151 22.5096 1.49037C22.4384 1.41924 22.342 1.37928 22.2414 1.37928H17.6898V2.89646C17.6898 2.99706 17.6498 3.09354 17.5787 3.16468C17.5075 3.23581 17.411 3.27578 17.3104 3.27578C17.2098 3.27578 17.1134 3.23581 17.0422 3.16468C16.9711 3.09354 16.9311 2.99706 16.9311 2.89646V1.37932H8.58656C8.48596 1.37932 8.38947 1.41928 8.31834 1.49042C8.2472 1.56155 8.20724 1.65803 8.20724 1.75864V8.20674H14.276V5.55164C14.276 5.45104 14.316 5.35456 14.3871 5.28342C14.4583 5.21229 14.5547 5.17232 14.6553 5.17232C14.7559 5.17232 14.8524 5.21229 14.9236 5.28342C14.9947 5.35456 15.0347 5.45104 15.0347 5.55164V8.58605C15.0347 8.68666 14.9947 8.78314 14.9236 8.85427C14.8524 8.92541 14.7559 8.96537 14.6553 8.96537H8.20728V15.4135C8.20728 15.5141 8.24725 15.6106 8.31838 15.6817C8.38952 15.7528 8.486 15.7928 8.5866 15.7928H10.3261L12.1114 14.0074C12.1829 13.9382 12.2788 13.8999 12.3783 13.9007C12.4778 13.9015 12.573 13.9414 12.6434 14.0118C12.7138 14.0822 12.7537 14.1774 12.7545 14.2769C12.7553 14.3764 12.717 14.4723 12.6478 14.5438L11.3987 15.7928H16.9312V14.2756C16.9312 14.175 16.9712 14.0786 17.0423 14.0074C17.1134 13.9363 17.2099 13.8963 17.3105 13.8963C17.4111 13.8963 17.5076 13.9363 17.5787 14.0074C17.6499 14.0786 17.6898 14.175 17.6898 14.2756V15.7928H22.2414C22.342 15.7928 22.4385 15.7529 22.5097 15.6817C22.5808 15.6106 22.6208 15.5141 22.6208 15.4135V8.96533H17.6898V11.6204C17.6898 11.721 17.6498 11.8175 17.5787 11.8886C17.5075 11.9598 17.411 11.9997 17.3104 11.9997C17.2098 11.9997 17.1134 11.9598 17.0422 11.8886C16.9711 11.8175 16.9311 11.721 16.9311 11.6204V5.5516C16.9311 5.451 16.9711 5.35452 17.0422 5.28338C17.1134 5.21224 17.2098 5.17228 17.3104 5.17228C17.411 5.17228 17.5075 5.21224 17.5787 5.28338C17.6498 5.35452 17.6898 5.451 17.6898 5.5516V8.20669H22.6207Z" fill="#5D5E61"/>
</g>
<defs>
<clipPath id="clip0_1062_89602">
<rect width="24" height="24" fill="white"/>
</clipPath>
</defs>
</svg>
