<svg width="24" height="24" viewBox="0 0 24 24" fill="none" xmlns="http://www.w3.org/2000/svg">
<g clip-path="url(#clip0_1062_89480)">
<path d="M12 10.3438C9.84375 10.3438 8.09375 12.0938 8.09375 14.25C8.09375 16.4062 9.84375 18.1562 12 18.1562C14.1563 18.1562 15.9063 16.4062 15.9063 14.25C15.9063 12.0938 14.1563 10.3438 12 10.3438ZM12 10.3438C9.84375 10.3438 8.09375 12.0938 8.09375 14.25C8.09375 16.4062 9.84375 18.1562 12 18.1562C14.1563 18.1562 15.9063 16.4062 15.9063 14.25C15.9063 12.0938 14.1563 10.3438 12 10.3438ZM3.125 6.5V20.9688C3.125 21.5312 3.59375 22 4.15625 22H19.8125C20.375 22 20.8438 21.5312 20.8438 20.9688V6.5H3.125ZM17.4375 17.4688C16.3125 19.375 14.2188 20.5938 12 20.5938C8.5 20.5938 5.6875 17.75 5.6875 14.2812C5.6875 10.75 8.5 7.9375 12 7.9375C14.2188 7.9375 16.3125 9.125 17.4375 11.0625C17.5313 11.2188 17.4688 11.4375 17.3125 11.5312C17.1563 11.625 16.9375 11.5625 16.8438 11.4062C15.8438 9.6875 13.9688 8.625 12 8.625C8.90625 8.625 6.375 11.1562 6.375 14.25C6.375 17.375 8.90625 19.875 12 19.875C14 19.875 15.8438 18.8125 16.8438 17.0938C16.9375 16.9375 17.1563 16.875 17.3125 16.9688C17.5 17.0938 17.5313 17.3125 17.4375 17.4688ZM16.5938 14.25C16.5938 16.7812 14.5313 18.8438 12 18.8438C9.46875 18.8438 7.40625 16.7812 7.40625 14.25C7.40625 11.7188 9.46875 9.65625 12 9.65625C14.5313 9.65625 16.5938 11.7188 16.5938 14.25ZM20.2188 15.4688C20.2188 16.0312 19.75 16.5 19.1875 16.5H18.1563C17.5938 16.5 17.125 16.0312 17.125 15.4688V13C17.125 12.4375 17.5938 11.9688 18.1563 11.9688H19.1875C19.75 11.9688 20.2188 12.4375 20.2188 13V15.4688ZM19.1875 12.6875H18.1563C17.9688 12.6875 17.8125 12.8438 17.8125 13.0312V15.5C17.8125 15.6875 17.9688 15.8438 18.1563 15.8438H19.1875C19.375 15.8438 19.5313 15.6875 19.5313 15.5V13.0312C19.5313 12.8125 19.375 12.6875 19.1875 12.6875ZM12 10.3438C9.84375 10.3438 8.09375 12.0938 8.09375 14.25C8.09375 16.4062 9.84375 18.1562 12 18.1562C14.1563 18.1562 15.9063 16.4062 15.9063 14.25C15.9063 12.0938 14.1563 10.3438 12 10.3438ZM10.125 3.59375C9.9375 3.59375 9.8125 3.71875 9.8125 3.90625C9.8125 4.09375 9.96875 4.21875 10.125 4.21875C10.3125 4.21875 10.4375 4.0625 10.4375 3.90625C10.4375 3.71875 10.3125 3.59375 10.125 3.59375ZM10.125 3.59375C9.9375 3.59375 9.8125 3.71875 9.8125 3.90625C9.8125 4.09375 9.96875 4.21875 10.125 4.21875C10.3125 4.21875 10.4375 4.0625 10.4375 3.90625C10.4375 3.71875 10.3125 3.59375 10.125 3.59375ZM5.375 3.59375C5.1875 3.59375 5.0625 3.71875 5.0625 3.90625C5.0625 4.09375 5.21875 4.21875 5.375 4.21875C5.5625 4.21875 5.6875 4.0625 5.6875 3.90625C5.6875 3.71875 5.53125 3.59375 5.375 3.59375ZM7.75 3.59375C7.5625 3.59375 7.4375 3.71875 7.4375 3.90625C7.4375 4.09375 7.59375 4.21875 7.75 4.21875C7.9375 4.21875 8.0625 4.0625 8.0625 3.90625C8.0625 3.71875 7.90625 3.59375 7.75 3.59375ZM10.125 3.59375C9.9375 3.59375 9.8125 3.71875 9.8125 3.90625C9.8125 4.09375 9.96875 4.21875 10.125 4.21875C10.3125 4.21875 10.4375 4.0625 10.4375 3.90625C10.4375 3.71875 10.3125 3.59375 10.125 3.59375ZM10.125 3.59375C9.9375 3.59375 9.8125 3.71875 9.8125 3.90625C9.8125 4.09375 9.96875 4.21875 10.125 4.21875C10.3125 4.21875 10.4375 4.0625 10.4375 3.90625C10.4375 3.71875 10.3125 3.59375 10.125 3.59375ZM7.75 3.59375C7.5625 3.59375 7.4375 3.71875 7.4375 3.90625C7.4375 4.09375 7.59375 4.21875 7.75 4.21875C7.9375 4.21875 8.0625 4.0625 8.0625 3.90625C8.0625 3.71875 7.90625 3.59375 7.75 3.59375ZM5.375 3.59375C5.1875 3.59375 5.0625 3.71875 5.0625 3.90625C5.0625 4.09375 5.21875 4.21875 5.375 4.21875C5.5625 4.21875 5.6875 4.0625 5.6875 3.90625C5.6875 3.71875 5.53125 3.59375 5.375 3.59375ZM5.375 3.59375C5.1875 3.59375 5.0625 3.71875 5.0625 3.90625C5.0625 4.09375 5.21875 4.21875 5.375 4.21875C5.5625 4.21875 5.6875 4.0625 5.6875 3.90625C5.6875 3.71875 5.53125 3.59375 5.375 3.59375ZM7.75 3.59375C7.5625 3.59375 7.4375 3.71875 7.4375 3.90625C7.4375 4.09375 7.59375 4.21875 7.75 4.21875C7.9375 4.21875 8.0625 4.0625 8.0625 3.90625C8.0625 3.71875 7.90625 3.59375 7.75 3.59375ZM10.125 3.59375C9.9375 3.59375 9.8125 3.71875 9.8125 3.90625C9.8125 4.09375 9.96875 4.21875 10.125 4.21875C10.3125 4.21875 10.4375 4.0625 10.4375 3.90625C10.4375 3.71875 10.3125 3.59375 10.125 3.59375ZM10.125 3.59375C9.9375 3.59375 9.8125 3.71875 9.8125 3.90625C9.8125 4.09375 9.96875 4.21875 10.125 4.21875C10.3125 4.21875 10.4375 4.0625 10.4375 3.90625C10.4375 3.71875 10.3125 3.59375 10.125 3.59375ZM7.75 3.59375C7.5625 3.59375 7.4375 3.71875 7.4375 3.90625C7.4375 4.09375 7.59375 4.21875 7.75 4.21875C7.9375 4.21875 8.0625 4.0625 8.0625 3.90625C8.0625 3.71875 7.90625 3.59375 7.75 3.59375ZM5.375 3.59375C5.1875 3.59375 5.0625 3.71875 5.0625 3.90625C5.0625 4.09375 5.21875 4.21875 5.375 4.21875C5.5625 4.21875 5.6875 4.0625 5.6875 3.90625C5.6875 3.71875 5.53125 3.59375 5.375 3.59375ZM19.8438 2H4.15625C3.59375 2 3.125 2.46875 3.125 3.03125V5.8125H20.875V3.03125C20.875 2.46875 20.4063 2 19.8438 2ZM5.375 4.90625C4.8125 4.90625 4.34375 4.46875 4.34375 3.90625C4.34375 3.34375 4.78125 2.90625 5.34375 2.90625C5.90625 2.90625 6.34375 3.34375 6.34375 3.90625C6.375 4.46875 5.90625 4.90625 5.375 4.90625ZM7.75 4.90625C7.1875 4.90625 6.75 4.46875 6.75 3.90625C6.75 3.34375 7.1875 2.90625 7.75 2.90625C8.3125 2.90625 8.75 3.34375 8.75 3.90625C8.75 4.46875 8.3125 4.90625 7.75 4.90625ZM10.125 4.90625C9.5625 4.90625 9.125 4.46875 9.125 3.90625C9.125 3.34375 9.5625 2.90625 10.125 2.90625C10.6875 2.90625 11.125 3.34375 11.125 3.90625C11.125 4.46875 10.6875 4.90625 10.125 4.90625ZM15.625 4.25H15C14.8125 4.25 14.6563 4.09375 14.6563 3.90625C14.6563 3.71875 14.8125 3.5625 15 3.5625H15.625C15.8125 3.5625 15.9688 3.71875 15.9688 3.90625C15.9688 4.09375 15.8125 4.25 15.625 4.25ZM17.4688 4.25H16.8438C16.6563 4.25 16.5 4.09375 16.5 3.90625C16.5 3.71875 16.6563 3.5625 16.8438 3.5625H17.4688C17.6563 3.5625 17.8125 3.71875 17.8125 3.90625C17.8125 4.09375 17.6563 4.25 17.4688 4.25ZM19.3125 4.25H18.6875C18.5 4.25 18.3438 4.09375 18.3438 3.90625C18.3438 3.71875 18.5 3.5625 18.7188 3.5625H19.3438C19.5313 3.5625 19.6875 3.71875 19.6875 3.90625C19.6875 4.09375 19.5 4.25 19.3125 4.25ZM10.125 3.59375C9.9375 3.59375 9.8125 3.71875 9.8125 3.90625C9.8125 4.09375 9.96875 4.21875 10.125 4.21875C10.3125 4.21875 10.4375 4.0625 10.4375 3.90625C10.4375 3.71875 10.3125 3.59375 10.125 3.59375ZM7.75 3.59375C7.5625 3.59375 7.4375 3.71875 7.4375 3.90625C7.4375 4.09375 7.59375 4.21875 7.75 4.21875C7.9375 4.21875 8.0625 4.0625 8.0625 3.90625C8.0625 3.71875 7.90625 3.59375 7.75 3.59375ZM5.375 3.59375C5.1875 3.59375 5.0625 3.71875 5.0625 3.90625C5.0625 4.09375 5.21875 4.21875 5.375 4.21875C5.5625 4.21875 5.6875 4.0625 5.6875 3.90625C5.6875 3.71875 5.53125 3.59375 5.375 3.59375ZM5.375 3.59375C5.1875 3.59375 5.0625 3.71875 5.0625 3.90625C5.0625 4.09375 5.21875 4.21875 5.375 4.21875C5.5625 4.21875 5.6875 4.0625 5.6875 3.90625C5.6875 3.71875 5.53125 3.59375 5.375 3.59375ZM7.75 3.59375C7.5625 3.59375 7.4375 3.71875 7.4375 3.90625C7.4375 4.09375 7.59375 4.21875 7.75 4.21875C7.9375 4.21875 8.0625 4.0625 8.0625 3.90625C8.0625 3.71875 7.90625 3.59375 7.75 3.59375ZM10.125 3.59375C9.9375 3.59375 9.8125 3.71875 9.8125 3.90625C9.8125 4.09375 9.96875 4.21875 10.125 4.21875C10.3125 4.21875 10.4375 4.0625 10.4375 3.90625C10.4375 3.71875 10.3125 3.59375 10.125 3.59375ZM10.125 3.59375C9.9375 3.59375 9.8125 3.71875 9.8125 3.90625C9.8125 4.09375 9.96875 4.21875 10.125 4.21875C10.3125 4.21875 10.4375 4.0625 10.4375 3.90625C10.4375 3.71875 10.3125 3.59375 10.125 3.59375ZM7.75 3.59375C7.5625 3.59375 7.4375 3.71875 7.4375 3.90625C7.4375 4.09375 7.59375 4.21875 7.75 4.21875C7.9375 4.21875 8.0625 4.0625 8.0625 3.90625C8.0625 3.71875 7.90625 3.59375 7.75 3.59375ZM5.375 3.59375C5.1875 3.59375 5.0625 3.71875 5.0625 3.90625C5.0625 4.09375 5.21875 4.21875 5.375 4.21875C5.5625 4.21875 5.6875 4.0625 5.6875 3.90625C5.6875 3.71875 5.53125 3.59375 5.375 3.59375ZM7.75 3.59375C7.5625 3.59375 7.4375 3.71875 7.4375 3.90625C7.4375 4.09375 7.59375 4.21875 7.75 4.21875C7.9375 4.21875 8.0625 4.0625 8.0625 3.90625C8.0625 3.71875 7.90625 3.59375 7.75 3.59375ZM10.125 3.59375C9.9375 3.59375 9.8125 3.71875 9.8125 3.90625C9.8125 4.09375 9.96875 4.21875 10.125 4.21875C10.3125 4.21875 10.4375 4.0625 10.4375 3.90625C10.4375 3.71875 10.3125 3.59375 10.125 3.59375ZM10.125 3.59375C9.9375 3.59375 9.8125 3.71875 9.8125 3.90625C9.8125 4.09375 9.96875 4.21875 10.125 4.21875C10.3125 4.21875 10.4375 4.0625 10.4375 3.90625C10.4375 3.71875 10.3125 3.59375 10.125 3.59375ZM7.75 3.59375C7.5625 3.59375 7.4375 3.71875 7.4375 3.90625C7.4375 4.09375 7.59375 4.21875 7.75 4.21875C7.9375 4.21875 8.0625 4.0625 8.0625 3.90625C8.0625 3.71875 7.90625 3.59375 7.75 3.59375Z" fill="#5D5E61"/>
</g>
<defs>
<clipPath id="clip0_1062_89480">
<rect width="24" height="24" fill="white"/>
</clipPath>
</defs>
</svg>
