<svg width="24" height="24" viewBox="0 0 24 24" fill="none" xmlns="http://www.w3.org/2000/svg">
<g clip-path="url(#clip0_1062_89553)">
<path d="M14.9957 5.98328H3.27523C2.57093 5.98328 2 6.55424 2 7.25851V9.74473H16.2709V7.25851C16.2709 6.55424 15.7 5.98328 14.9957 5.98328ZM5.33915 8.15169C5.29335 8.41484 5.05867 8.61411 4.79067 8.61411C4.55313 8.61411 4.33682 8.45655 4.2623 8.23166C4.1945 8.02704 4.25455 7.79641 4.41197 7.64949C4.59666 7.47712 4.88281 7.45418 5.09404 7.59101C5.27832 7.71031 5.37681 7.93527 5.33915 8.15169ZM7.56883 8.13243C7.53157 8.40437 7.29203 8.61411 7.01727 8.61411C6.78831 8.61411 6.57764 8.46749 6.49678 8.25386C6.42389 8.06129 6.46575 7.83842 6.60347 7.68526C6.76523 7.50539 7.02933 7.45263 7.24898 7.55149C7.46956 7.65075 7.60156 7.89341 7.56883 8.13243ZM13.7713 8.61397H11.9158C11.6084 8.61397 11.3592 8.36474 11.3592 8.05732C11.3592 7.74991 11.6084 7.50068 11.9158 7.50068H13.7713C14.0787 7.50068 14.3279 7.74991 14.3279 8.05732C14.3279 8.36474 14.0787 8.61397 13.7713 8.61397Z" fill="#5D5E61"/>
<path d="M12.1971 16.8551C12.2292 15.1674 10.887 13.7733 9.19933 13.7412C7.51165 13.7092 6.11752 15.0513 6.08546 16.739C6.05339 18.4267 7.39553 19.8208 9.08321 19.8529C10.7709 19.8849 12.165 18.5428 12.1971 16.8551Z" fill="#5D5E61"/>
<path d="M14.3432 21.9827L13.7856 18.6503C13.6999 18.1384 13.8431 17.6176 14.1785 17.2215C14.2553 17.1308 14.3405 17.0494 14.4319 16.9771C14.2321 16.6948 14.1142 16.3506 14.1142 15.9792C14.1142 15.5223 14.2924 15.1065 14.5824 14.7967C14.2924 14.4868 14.1142 14.071 14.1142 13.6141C14.1142 12.659 14.8913 11.882 15.8464 11.882H16.2709V10.858H2V21.632C2 22.3363 2.57093 22.9072 3.27523 22.9072H14.7022C14.525 22.6344 14.4 22.3222 14.3432 21.9827ZM9.13544 20.9616C6.83291 20.9616 4.96634 19.095 4.96634 16.7925C4.96634 14.4899 6.83291 12.6234 9.13544 12.6234C11.438 12.6234 13.3045 14.4899 13.3045 16.7925C13.3045 19.0949 11.438 20.9616 9.13544 20.9616Z" fill="#5D5E61"/>
<path d="M20.028 14.233H15.8462C15.5044 14.233 15.2273 13.956 15.2273 13.6142C15.2273 13.2724 15.5044 12.9953 15.8462 12.9953H20.028C20.3697 12.9953 20.6468 13.2724 20.6468 13.6142C20.6468 13.956 20.3697 14.233 20.028 14.233Z" fill="#5D5E61"/>
<path d="M20.028 16.5982H15.8462C15.5044 16.5982 15.2273 16.3212 15.2273 15.9794C15.2273 15.6376 15.5044 15.3605 15.8462 15.3605H20.028C20.3697 15.3605 20.6468 15.6376 20.6468 15.9794C20.6468 16.3211 20.3697 16.5982 20.028 16.5982Z" fill="#5D5E61"/>
<path d="M19.1403 22.8939H16.7349C16.0942 22.8939 15.5472 22.4309 15.4415 21.7989L14.8838 18.4666C14.8177 18.0714 15.1224 17.7115 15.5231 17.7115H20.3519C20.7527 17.7115 21.0574 18.0714 20.9912 18.4666L20.4336 21.7989C20.3279 22.4309 19.781 22.8939 19.1403 22.8939Z" fill="#5D5E61"/>
<path d="M19.9932 2.96095C19.9175 2.6736 19.6867 2.67671 18.9824 2.34429C18.3785 2.05925 17.8928 1.56457 17.6556 1.29319C17.5653 1.18976 17.4394 1.10115 17.2489 1.10115H17.0948L17.0955 0.824277C17.1026 0.813959 17.1371 0.792881 17.16 0.779003C17.2501 0.724086 17.4007 0.632172 17.4007 0.410656C17.4007 0.184229 17.2166 0 16.9902 0C16.7638 0 16.5796 0.184229 16.5796 0.410656C16.5796 0.47047 16.6281 0.518958 16.6879 0.518958C16.7477 0.518958 16.7962 0.470484 16.7962 0.410656C16.7962 0.303691 16.8831 0.216591 16.9902 0.216591C17.097 0.216591 17.1841 0.303678 17.1841 0.410656C17.1841 0.505991 17.1346 0.54074 17.0472 0.59414C16.9774 0.636821 16.8819 0.695021 16.8819 0.814083V1.10117H16.7512C16.5747 1.10117 16.435 1.18967 16.3447 1.2932C16.1074 1.56457 15.6217 2.05927 15.0179 2.34431C14.3135 2.67672 14.0828 2.67334 14.0067 2.96119C13.9717 3.09415 14.0788 3.16645 14.2046 3.11145C14.6382 2.92239 15.6226 2.45653 16.5993 1.74352C16.5993 1.74352 16.7857 1.58463 16.9859 1.58463H17.0141C17.2145 1.58463 17.4007 1.74352 17.4007 1.74352C18.3776 2.45654 19.3619 2.92239 19.7954 3.11145C19.9213 3.1661 20.0282 3.09379 19.9932 2.96095Z" fill="#5D5E61"/>
<path d="M7.30371 5.29062V2.25487C7.30371 2.10262 7.42366 1.98267 7.57591 1.98267H9.2322C10.2933 1.98267 11.1561 2.84541 11.1561 3.90654V5.29062H7.30371ZM9.90117 4.38174C10.3164 4.38174 9.92885 3.07609 8.90925 3.07609C8.83543 3.07609 8.50325 3.06225 8.44789 3.11761C8.40175 3.15452 8.39714 3.32523 8.39714 3.37598C8.38791 3.65741 8.40175 3.94345 8.40175 4.22488C8.40175 4.31254 8.47095 4.38174 8.55861 4.38174H9.90117ZM10.1138 4.46948H8.11377V2.96948H9.11377C9.50131 2.96948 9.96152 3.10501 10.1138 3.46948V4.46948Z" fill="#5D5E61"/>
<path d="M7.30371 1.73356V1.51211C7.30371 1.23068 7.53439 1 7.81582 1H8.39252C8.67395 1 8.90463 1.23068 8.90463 1.51211V1.66897H7.57591C7.47903 1.66897 7.38676 1.69204 7.30371 1.73356Z" fill="#5D5E61"/>
<path d="M4 5.29062V2.64703C4 2.27794 4.29988 1.98267 4.66897 1.98267H5.71626C6.08074 1.98267 6.38062 2.28255 6.38062 2.64703V5.29062H4Z" fill="#5D5E61"/>
<path d="M4.3877 1.7105V1.51211C4.3877 1.23068 4.61838 1 4.89981 1H5.47651C5.76255 1 5.98862 1.23068 5.98862 1.51211V1.7105C5.90096 1.68281 5.80869 1.66897 5.71642 1.66897H4.66913C4.57224 1.66897 4.47535 1.68281 4.3877 1.7105Z" fill="#5D5E61"/>
</g>
<defs>
<clipPath id="clip0_1062_89553">
<rect width="24" height="24" fill="white"/>
</clipPath>
</defs>
</svg>
