<svg width="24" height="24" viewBox="0 0 24 24" fill="none" xmlns="http://www.w3.org/2000/svg">
<g clip-path="url(#clip0_1062_89542)">
<path d="M16.4356 9.95063C16.2976 10.5729 16.263 11.1722 16.3333 11.7509C16.5652 11.399 16.8363 11.0772 17.1435 10.7823C17.4039 9.85399 17.8651 8.93399 18.5203 8.0215C17.6132 8.62296 16.9409 9.27044 16.4356 9.95063Z" fill="#5D5E61"/>
<path d="M9.86812 10.8243C10.0137 10.2098 10.2294 9.6248 10.5112 9.06902C9.8734 8.27735 9.13043 7.60769 8.24865 7.09912C8.83658 8.06027 9.19588 9.00052 9.34089 9.92107C9.53503 10.2203 9.71128 10.521 9.86812 10.8243Z" fill="#5D5E61"/>
<path d="M12.7745 9.38504C12.9203 9.96858 12.9974 10.6357 13.0262 11.3617C13.032 11.3764 13.0364 11.3913 13.0424 11.4059C13.1594 10.8417 13.3333 10.3084 13.5616 9.8032C13.3454 9.5633 13.0933 9.34333 12.7993 9.14787C12.7893 9.22703 12.7814 9.30605 12.7745 9.38504Z" fill="#5D5E61"/>
<path d="M3.77946 14.2124C3.80114 13.6689 3.74058 13.1217 3.59715 12.569C2.89438 12.3137 2.11328 12.2069 1.30122 12.1589C2.36474 12.7916 3.31403 13.4493 3.77946 14.2124Z" fill="#5D5E61"/>
<path d="M6.44186 11.7487C6.45413 11.0229 6.32781 10.2539 6.06462 9.43792C5.50796 9.03895 4.91916 8.74988 4.28936 8.60121C4.76561 9.21308 5.15196 9.8046 5.38512 10.3615C5.81752 10.7843 6.17013 11.2458 6.44186 11.7487Z" fill="#5D5E61"/>
<path d="M4.25351 14.3604C6.3213 13.8557 9.03987 13.5609 12 13.5609C15.7469 13.5609 19.1056 14.0335 21.2485 14.8061C21.2003 13.8654 21.5922 13.0613 22.2668 12.3567C21.1654 12.5352 20.335 13.1335 19.6851 13.9999C19.1976 12.5097 20.4072 11.4903 21.5446 10.9939C20.6961 10.9298 20.2989 11.1338 19.7573 11.5158C20.1544 10.064 21.3641 9.47813 22.7 9.04462C19.5768 9.42713 17.1576 10.5094 16.1828 13.0956C15.3161 10.8664 16.0564 8.56074 17.6992 6.22953C15.1537 7.65635 13.5108 9.70703 13.3483 12.7896C11.8318 11.0319 12.1567 8.94261 12.9151 6.78992C11.1819 8.29325 10.1529 10.2164 10.1168 12.7386C9.35853 10.064 7.35465 7.93685 4.89941 6C6.75885 8.90465 7.37272 11.4523 6.57839 13.6304C6.18117 11.2358 4.46604 9.83454 2.13721 8.90465C3.56627 10.6614 4.36923 12.4779 4.25351 14.3604Z" fill="#5D5E61"/>
<path d="M22.8611 16.21C21.5561 14.9472 17.1939 14.0255 12 14.0255C6.80618 14.0255 2.44395 14.9472 1.13892 16.21C0.838426 16.5008 1.05848 17 1.483 17H22.517C22.9415 17 23.1616 16.5008 22.8611 16.21Z" fill="#5D5E61"/>
</g>
<defs>
<clipPath id="clip0_1062_89542">
<rect width="24" height="24" fill="white"/>
</clipPath>
</defs>
</svg>
