<svg width="24" height="24" viewBox="0 0 24 24" fill="none" xmlns="http://www.w3.org/2000/svg">
<g clip-path="url(#clip0_1062_89517)">
<path d="M5.33156 18.7353H18.6684V20.7999H5.33156V18.7353Z" fill="#5D5E61"/>
<path d="M5.33156 18.2647L11.7336 18.2665L11.7321 14.4202C11.7321 13.9908 11.3735 13.6415 10.9327 13.6415H5.06465C4.62387 13.6415 4.26527 13.9908 4.26527 14.4201V16.6694C4.5701 16.7533 4.8392 16.9344 5.03168 17.1853C5.22416 17.4361 5.32949 17.7429 5.33168 18.059L5.33156 18.2647ZM9.40625 14.777C9.47501 14.777 9.54223 14.7974 9.5994 14.8356C9.65657 14.8738 9.70113 14.9281 9.72744 14.9916C9.75376 15.0551 9.76064 15.125 9.74723 15.1925C9.73381 15.2599 9.7007 15.3219 9.65208 15.3705C9.60346 15.4191 9.54151 15.4522 9.47407 15.4656C9.40664 15.4791 9.33673 15.4722 9.27321 15.4459C9.20968 15.4195 9.15539 15.375 9.11718 15.3178C9.07898 15.2606 9.05859 15.1934 9.05859 15.1247C9.05871 15.0325 9.09537 14.9441 9.16055 14.879C9.22572 14.8138 9.31408 14.7771 9.40625 14.777ZM9.40625 16.4352C9.47501 16.4352 9.54223 16.4556 9.5994 16.4938C9.65657 16.532 9.70113 16.5863 9.72744 16.6498C9.75376 16.7133 9.76064 16.7832 9.74723 16.8507C9.73381 16.9181 9.7007 16.98 9.65208 17.0287C9.60346 17.0773 9.54151 17.1104 9.47407 17.1238C9.40664 17.1372 9.33673 17.1303 9.27321 17.104C9.20968 17.0777 9.15539 17.0331 9.11718 16.976C9.07898 16.9188 9.05859 16.8516 9.05859 16.7828C9.05871 16.6907 9.09537 16.6023 9.16055 16.5371C9.22572 16.472 9.31408 16.4353 9.40625 16.4352ZM6.59285 14.777C6.66161 14.777 6.72883 14.7974 6.786 14.8356C6.84317 14.8738 6.88773 14.9281 6.91404 14.9916C6.94036 15.0551 6.94724 15.125 6.93383 15.1925C6.92041 15.2599 6.8873 15.3219 6.83868 15.3705C6.79006 15.4191 6.72811 15.4522 6.66068 15.4656C6.59324 15.4791 6.52334 15.4722 6.45981 15.4459C6.39628 15.4195 6.34199 15.375 6.30379 15.3178C6.26558 15.2606 6.2452 15.1934 6.2452 15.1247C6.24532 15.0325 6.28198 14.9442 6.34713 14.879C6.41229 14.8138 6.5007 14.7772 6.59285 14.777ZM6.59285 16.4352C6.66161 16.4352 6.72883 16.4556 6.786 16.4938C6.84317 16.532 6.88773 16.5863 6.91404 16.6498C6.94036 16.7133 6.94724 16.7832 6.93383 16.8507C6.92041 16.9181 6.8873 16.98 6.83868 17.0287C6.79006 17.0773 6.72811 17.1104 6.66068 17.1238C6.59324 17.1372 6.52334 17.1303 6.45981 17.104C6.39628 17.0777 6.34199 17.0331 6.30379 16.976C6.26558 16.9188 6.2452 16.8516 6.2452 16.7828C6.24532 16.6907 6.28198 16.6023 6.34713 16.5372C6.41229 16.472 6.5007 16.4353 6.59285 16.4352Z" fill="#5D5E61"/>
<path d="M3.86113 17.082C3.30859 17.082 2.85938 17.5204 2.85938 18.059V21.5416H4.86281V18.059C4.86281 17.5204 4.41344 17.082 3.86113 17.082Z" fill="#5D5E61"/>
<path d="M19.6346 14.4201C19.6346 13.9908 19.2761 13.6415 18.8352 13.6415H13.0002C12.8954 13.6408 12.7915 13.661 12.6945 13.7008C12.5976 13.7406 12.5095 13.7993 12.4355 13.8735C12.3603 13.9498 12.3011 14.0403 12.2612 14.1396C12.2214 14.239 12.2017 14.3453 12.2032 14.4524L12.2025 18.2667L18.6684 18.2685V18.059C18.6702 17.7608 18.7639 17.4703 18.9369 17.2273C19.1098 16.9842 19.3534 16.8005 19.6346 16.701V14.4201ZM14.5117 17.1306C14.443 17.1306 14.3757 17.1103 14.3186 17.0721C14.2614 17.0338 14.2168 16.9796 14.1905 16.916C14.1642 16.8525 14.1573 16.7826 14.1707 16.7152C14.1842 16.6477 14.2173 16.5858 14.2659 16.5372C14.3145 16.4885 14.3765 16.4554 14.4439 16.442C14.5113 16.4286 14.5812 16.4355 14.6448 16.4618C14.7083 16.4881 14.7626 16.5327 14.8008 16.5898C14.839 16.647 14.8594 16.7142 14.8594 16.783C14.8592 16.8751 14.8226 16.9635 14.7574 17.0287C14.6922 17.0938 14.6039 17.1305 14.5117 17.1306ZM14.5117 15.4725C14.443 15.4725 14.3757 15.4521 14.3186 15.4139C14.2614 15.3757 14.2168 15.3214 14.1905 15.2579C14.1642 15.1943 14.1573 15.1244 14.1707 15.057C14.1842 14.9896 14.2173 14.9276 14.2659 14.879C14.3145 14.8304 14.3765 14.7973 14.4439 14.7838C14.5113 14.7704 14.5812 14.7773 14.6448 14.8036C14.7083 14.8299 14.7626 14.8745 14.8008 14.9317C14.839 14.9888 14.8594 15.0561 14.8594 15.1248C14.8593 15.217 14.8226 15.3054 14.7575 15.3706C14.6923 15.4358 14.6039 15.4723 14.5117 15.4725ZM17.325 17.1306C17.2563 17.1306 17.1891 17.1103 17.1319 17.0721C17.0747 17.0338 17.0302 16.9796 17.0038 16.916C16.9775 16.8525 16.9706 16.7826 16.9841 16.7152C16.9975 16.6477 17.0306 16.5858 17.0792 16.5372C17.1278 16.4885 17.1898 16.4554 17.2572 16.442C17.3247 16.4286 17.3946 16.4355 17.4581 16.4618C17.5216 16.4881 17.5759 16.5327 17.6141 16.5898C17.6523 16.647 17.6727 16.7142 17.6727 16.783C17.6726 16.8751 17.6359 16.9635 17.5708 17.0286C17.5056 17.0938 17.4172 17.1305 17.325 17.1306ZM17.325 15.4725C17.2563 15.4725 17.1891 15.4521 17.1319 15.4139C17.0747 15.3757 17.0302 15.3214 17.0038 15.2579C16.9775 15.1943 16.9706 15.1244 16.9841 15.057C16.9975 14.9896 17.0306 14.9276 17.0792 14.879C17.1278 14.8304 17.1898 14.7973 17.2572 14.7838C17.3247 14.7704 17.3946 14.7773 17.4581 14.8036C17.5216 14.8299 17.5759 14.8745 17.6141 14.9317C17.6523 14.9888 17.6727 15.0561 17.6727 15.1248C17.6726 15.217 17.636 15.3054 17.5708 15.3706C17.5057 15.4358 17.4172 15.4723 17.325 15.4725Z" fill="#5D5E61"/>
<path d="M20.1389 17.082C19.5866 17.082 19.1372 17.5202 19.1372 18.0589V21.5414H21.1406V18.059C21.1406 17.5204 20.6914 17.082 20.1389 17.082Z" fill="#5D5E61"/>
<path d="M5.58359 5.74607V2.69275C5.58359 2.63059 5.5589 2.57097 5.51495 2.52702C5.47099 2.48307 5.41138 2.45837 5.34922 2.45837C5.28706 2.45837 5.22744 2.48307 5.18349 2.52702C5.13954 2.57097 5.11484 2.63059 5.11484 2.69275V5.74607C5.11484 5.80823 5.13954 5.86784 5.18349 5.9118C5.22744 5.95575 5.28706 5.98044 5.34922 5.98044C5.41138 5.98044 5.47099 5.95575 5.51495 5.9118C5.5589 5.86784 5.58359 5.80823 5.58359 5.74607Z" fill="#5D5E61"/>
<path d="M7.00426 7.63564C7.00426 7.1967 6.82989 6.77573 6.51951 6.46535C6.20913 6.15497 5.78816 5.98044 5.34922 5.98044C4.91027 5.98044 4.48931 6.15497 4.17893 6.46535C3.86855 6.77573 3.69418 7.1967 3.69418 7.63564V7.77916H7.00426V7.63564ZM4.95652 6.84763C4.7857 6.96849 4.63933 7.12063 4.52516 7.29599C4.50834 7.32177 4.48661 7.34399 4.4612 7.36137C4.4358 7.37875 4.40722 7.39096 4.3771 7.39729C4.34698 7.40363 4.31591 7.40397 4.28565 7.3983C4.2554 7.39263 4.22656 7.38105 4.20078 7.36423C4.175 7.34742 4.15279 7.32568 4.13541 7.30028C4.11802 7.27488 4.10582 7.2463 4.09948 7.21618C4.09314 7.18606 4.0928 7.15498 4.09847 7.12473C4.10415 7.09448 4.11572 7.06564 4.13254 7.03986C4.27889 6.81512 4.4665 6.62015 4.68543 6.46525C4.73616 6.42997 4.79877 6.41615 4.85964 6.4268C4.9205 6.43745 4.9747 6.47171 5.01044 6.52212C5.04618 6.57253 5.06056 6.63501 5.05046 6.69597C5.04037 6.75693 5.00661 6.81144 4.95652 6.84763Z" fill="#5D5E61"/>
<path d="M5.39336 8.45193C5.46389 8.45069 5.5329 8.43125 5.59371 8.39551C5.65452 8.35977 5.70508 8.30892 5.74047 8.24791H5.04629C5.08168 8.30892 5.13222 8.35976 5.19303 8.3955C5.25383 8.43125 5.32284 8.45068 5.39336 8.45193Z" fill="#5D5E61"/>
<path d="M8.00102 11.4918H12.4195L10.2913 9.42615L8.00102 11.4918Z" fill="#5D5E61"/>
<path d="M12.9765 11.3792L13.0926 11.4918H16.2254L14.6174 10.1183L12.9765 11.3792Z" fill="#5D5E61"/>
<path d="M12.6549 9.21767C12.957 9.21767 13.2018 8.97283 13.2018 8.6708C13.2018 8.36876 12.957 8.12392 12.6549 8.12392C12.3529 8.12392 12.108 8.36876 12.108 8.6708C12.108 8.97283 12.3529 9.21767 12.6549 9.21767Z" fill="#5D5E61"/>
<path d="M18.1896 11.4918V5.91443H6.59117C6.86402 6.11093 7.08627 6.36947 7.23959 6.66873C7.39291 6.96798 7.47291 7.29939 7.47301 7.63564V8.01353C7.47301 8.07569 7.44831 8.1353 7.40436 8.17926C7.36041 8.22321 7.30079 8.24791 7.23863 8.24791H6.24516C6.21365 8.36593 6.15898 8.4765 6.08434 8.57319C6.00969 8.66988 5.91655 8.75076 5.81035 8.81111V11.4918H7.30117L10.1402 8.93119C10.1844 8.89133 10.242 8.86976 10.3015 8.87085C10.361 8.87193 10.4178 8.8956 10.4605 8.93705L12.6367 11.0492L14.4826 9.63084C14.5252 9.59808 14.5777 9.58097 14.6315 9.58236C14.6852 9.58374 14.7368 9.60355 14.7777 9.63845L16.9473 11.4918H18.1896ZM12.6549 9.68642C12.4541 9.68642 12.2577 9.62686 12.0907 9.51526C11.9237 9.40366 11.7935 9.24504 11.7166 9.05946C11.6397 8.87388 11.6196 8.66967 11.6588 8.47266C11.698 8.27565 11.7947 8.09468 11.9368 7.95264C12.0788 7.8106 12.2598 7.71387 12.4568 7.67469C12.6538 7.6355 12.858 7.65561 13.0436 7.73248C13.2292 7.80935 13.3878 7.93953 13.4994 8.10654C13.611 8.27356 13.6705 8.46992 13.6705 8.6708C13.6702 8.94006 13.5631 9.19822 13.3727 9.38862C13.1823 9.57902 12.9242 9.68612 12.6549 9.68642Z" fill="#5D5E61"/>
</g>
<defs>
<clipPath id="clip0_1062_89517">
<rect width="24" height="24" fill="white"/>
</clipPath>
</defs>
</svg>
