<svg width="24" height="24" viewBox="0 0 24 24" fill="none" xmlns="http://www.w3.org/2000/svg">
<g clip-path="url(#clip0_1062_89496)">
<path d="M20.5861 2.00007L18.2161 2.00013C18.2832 3.46726 18.9899 3.72015 19.7461 3.99074C20.5453 4.2767 21.3997 4.58243 21.6127 6.3621C21.6864 6.81548 21.7578 7.25471 22 7.68989V3.42575C21.9985 2.64296 21.3674 2.00792 20.5861 2.00007Z" fill="#5D5E61"/>
<path d="M22 16.8658C19.973 15.8674 19.4891 13.8443 19.1334 12.3568C19.1006 12.2198 19.0689 12.0874 19.0372 11.9607C18.3426 9.21944 17.3108 8.14789 16.4004 7.20244C15.7731 6.55105 15.1807 5.93576 14.7752 4.93075C14.3744 3.93611 14.35 2.98152 14.3262 2.04671L14.325 2H9.69567C9.22745 3.76915 8.43796 4.6647 7.66353 5.54318C6.77171 6.55481 5.89984 7.54381 5.5615 9.81822C5.51078 10.1482 5.20007 10.3793 4.86508 10.3273C4.5322 10.2755 4.3043 9.96378 4.35602 9.63086C4.46303 8.94554 4.63783 8.27253 4.87785 7.62175C5.34266 6.30853 6.01176 5.56278 6.66938 4.82982C7.34666 4.07495 8.01176 3.33366 8.42899 2.00004H5.99112C5.90093 3.38533 5.32157 4.81219 4.30922 5.89941C3.647 6.56162 2.75055 6.99012 2 7.27934V20.5714C2 21.3565 2.63333 21.9937 3.41696 22C3.5666 21.3738 3.84379 20.6874 4.12206 19.9983C4.52932 18.9898 4.93892 17.9755 4.95444 17.136C4.94517 16.5723 4.83221 15.9153 4.71732 15.2905C4.65633 14.9592 4.87547 14.6412 5.20688 14.5803C5.53821 14.5194 5.85616 14.7385 5.91711 15.0698C6.04119 15.7449 6.16338 16.459 6.1742 17.1159C6.18718 18.1175 5.73716 19.2384 5.29716 20.3343C5.06886 20.9029 4.84325 21.4649 4.68644 21.9999L8.63071 22C8.74566 21.539 8.92564 21.0481 9.10907 20.5478C9.55395 19.3345 10.019 18.0661 9.6252 17.0355C9.51016 16.735 9.38566 16.4313 9.25984 16.1243C8.64882 14.6333 8.00658 13.0662 8.26419 11.4268C8.5909 9.31778 11.2946 8.53981 11.9864 11.0632C12.5423 13.192 14.2734 15.1249 15.7194 16.5709C17.2549 18.1064 17.1534 19.2147 17.046 20.3882C17.0006 20.8837 16.9541 21.3928 17.0247 22H20.5831C21.3634 21.9937 21.9948 21.3618 22 20.5812L22 16.8658Z" fill="#5D5E61"/>
<path d="M12.1605 22C12.219 21.5948 12.3481 21.2364 12.4716 20.8935C12.7403 20.1477 12.9825 19.4753 12.4137 18.5547C12.3728 18.4858 12.3458 18.4096 12.3343 18.3303C12.3229 18.251 12.3271 18.1702 12.3469 18.0926C12.3667 18.015 12.4016 17.942 12.4495 17.8779C12.4975 17.8137 12.5577 17.7597 12.6266 17.7188C12.9161 17.5467 13.2904 17.642 13.4625 17.9316C14.279 19.3706 13.9799 20.2433 13.6492 21.2077C13.5622 21.4615 13.4731 21.7215 13.4015 22H15.7986C15.7241 21.3825 15.7783 20.8613 15.8281 20.3825C15.9326 19.3787 16.0177 18.5611 14.8569 17.4336C13.3019 15.8786 11.4361 13.7842 10.8061 11.3714C10.7522 11.1649 10.5894 10.6866 10.2418 10.703C9.93267 10.7174 9.55895 11.0656 9.46825 11.6229C9.25851 12.9118 9.83632 14.3184 10.3952 15.6787L10.3962 15.6812C10.5207 15.9844 10.6496 16.2982 10.7651 16.6009C11.3112 18.0379 10.7912 19.4773 10.2845 20.8795C10.1485 21.2559 10.0134 21.6297 9.90024 22H12.1605Z" fill="#5D5E61"/>
<path d="M2 5.96044C2.62564 5.6838 3.2791 5.30309 3.67275 4.77747C4.33053 3.89931 4.69174 2.98586 4.76886 2.00009L3.41249 2.00009C2.63092 2.00871 2 2.64496 2 3.42857V5.96044Z" fill="#5D5E61"/>
<path d="M20.4368 6.66194C20.3106 5.89226 20.2148 5.30796 19.2639 5.10129C17.7435 4.70544 17.0375 3.51657 16.9949 2.00004H15.5453L15.5456 2.01407C15.5674 2.87236 15.588 3.68549 15.9064 4.47435C16.2235 5.26 16.7126 5.76803 17.2791 6.35632C18.2444 7.35878 19.4457 8.60635 20.2198 11.6611C20.2536 11.7965 20.2869 11.9372 20.3211 12.0817C20.5871 13.2069 20.9078 14.5635 22 15.4428V9.50928C20.7389 8.50454 20.5707 7.47882 20.4368 6.66194Z" fill="#5D5E61"/>
</g>
<defs>
<clipPath id="clip0_1062_89496">
<rect width="24" height="24" fill="white"/>
</clipPath>
</defs>
</svg>
