<svg width="24" height="24" viewBox="0 0 24 24" fill="none" xmlns="http://www.w3.org/2000/svg">
<g clip-path="url(#clip0_1062_89539)">
<path d="M22.6207 19.3102H6.68966V17.7929C6.68967 17.7431 6.67987 17.6938 6.66081 17.6477C6.64175 17.6017 6.61381 17.5599 6.57859 17.5247C6.54336 17.4895 6.50154 17.4615 6.45552 17.4425C6.40949 17.4234 6.36016 17.4136 6.31034 17.4136H5.55172V9.97437C4.69378 10.2842 3.7545 10.2842 2.89655 9.97437V17.4136H2.13793C2.08812 17.4136 2.03879 17.4234 1.99276 17.4425C1.94673 17.4615 1.90491 17.4895 1.86969 17.5247C1.83446 17.5599 1.80653 17.6017 1.78747 17.6477C1.76841 17.6938 1.75861 17.7431 1.75862 17.7929V19.3102H1.37931C1.27871 19.3102 1.18223 19.3501 1.1111 19.4213C1.03996 19.4924 1 19.5889 1 19.6895C1 19.7901 1.03996 19.8865 1.1111 19.9577C1.18223 20.0288 1.27871 20.0688 1.37931 20.0688H22.6207C22.7213 20.0688 22.8178 20.0288 22.8889 19.9577C22.96 19.8865 23 19.7901 23 19.6895C23 19.5889 22.96 19.4924 22.8889 19.4213C22.8178 19.3501 22.7213 19.3102 22.6207 19.3102Z" fill="#5D5E61"/>
<path d="M4.7932 5.65495C4.7931 5.55438 4.7531 5.45796 4.68199 5.38684C4.61088 5.31573 4.51446 5.27574 4.41389 5.27563H4.03458V6.03426H4.41389C4.51446 6.03416 4.61088 5.99416 4.68199 5.92305C4.7531 5.85193 4.7931 5.75551 4.7932 5.65495Z" fill="#5D5E61"/>
<path d="M4.22414 9.44828C4.86181 9.44828 5.48517 9.25918 6.01537 8.90491C6.54558 8.55064 6.95883 8.0471 7.20285 7.45796C7.44688 6.86883 7.51073 6.22056 7.38633 5.59514C7.26192 4.96972 6.95485 4.39523 6.50395 3.94433C6.05304 3.49343 5.47856 3.18636 4.85314 3.06195C4.22771 2.93755 3.57945 3.0014 2.99031 3.24542C2.40118 3.48945 1.89764 3.9027 1.54337 4.4329C1.18909 4.96311 1 5.58647 1 6.22414C1.00099 7.07893 1.34099 7.89843 1.94542 8.50286C2.54985 9.10729 3.36935 9.44729 4.22414 9.44828ZM3.27586 4.89655C3.27585 4.84674 3.28565 4.79741 3.30471 4.75138C3.32377 4.70536 3.35171 4.66354 3.38693 4.62831C3.42216 4.59309 3.46398 4.56515 3.51 4.54609C3.55603 4.52703 3.60536 4.51723 3.65517 4.51724H4.41379C4.71559 4.51724 5.00503 4.63713 5.21843 4.85053C5.43184 5.06394 5.55172 5.35338 5.55172 5.65517C5.55172 5.95697 5.43184 6.24641 5.21843 6.45981C5.00503 6.67322 4.71559 6.7931 4.41379 6.7931H4.03448V7.55173C4.03448 7.65232 3.99452 7.7488 3.92339 7.81994C3.85225 7.89107 3.75577 7.93104 3.65517 7.93104C3.55457 7.93104 3.45809 7.89107 3.38696 7.81994C3.31582 7.7488 3.27586 7.65232 3.27586 7.55173V4.89655Z" fill="#5D5E61"/>
<path d="M12.7587 17.9826C12.7586 17.6694 12.6479 17.3663 12.446 17.1269C12.2441 16.8875 11.964 16.7271 11.6553 16.6741C11.3467 16.6212 11.0292 16.6791 10.759 16.8375C10.4889 16.996 10.2835 17.2449 10.1791 17.5402C10.1287 17.6822 10.1031 17.8319 10.1035 17.9826C10.1035 18.3347 10.2434 18.6724 10.4923 18.9214C10.7413 19.1703 11.079 19.3102 11.4311 19.3102C11.7832 19.3102 12.1208 19.1703 12.3698 18.9214C12.6188 18.6724 12.7587 18.3347 12.7587 17.9826Z" fill="#5D5E61"/>
<path d="M20.3447 17.9826C20.3447 17.6694 20.2339 17.3663 20.032 17.1269C19.8301 16.8875 19.5501 16.7271 19.2414 16.6741C18.9327 16.6212 18.6153 16.6791 18.3451 16.8375C18.075 16.996 17.8695 17.2449 17.7651 17.5402C17.7147 17.6822 17.6892 17.8319 17.6895 17.9826C17.6895 18.3347 17.8294 18.6724 18.0784 18.9214C18.3274 19.1703 18.665 19.3102 19.0171 19.3102C19.3692 19.3102 19.7069 19.1703 19.9559 18.9214C20.2049 18.6724 20.3447 18.3347 20.3447 17.9826Z" fill="#5D5E61"/>
<path d="M7.82755 17.7929H9.36086C9.40709 17.2749 9.64553 16.793 10.0293 16.442C10.413 16.091 10.9142 15.8963 11.4342 15.8963C11.9543 15.8963 12.4555 16.091 12.8392 16.442C13.2229 16.793 13.4614 17.2749 13.5076 17.7929H16.9471C16.9933 17.2749 17.2317 16.793 17.6155 16.442C17.9992 16.091 18.5004 15.8963 19.0204 15.8963C19.5405 15.8963 20.0417 16.091 20.4254 16.442C20.8091 16.793 21.0476 17.2749 21.0938 17.7929H22.6207C22.7213 17.7929 22.8177 17.7529 22.8889 17.6818C22.96 17.6107 23 17.5142 23 17.4136C23 17.313 22.96 17.2165 22.8889 17.1454C22.8177 17.0743 22.7213 17.0343 22.6207 17.0343H22.2413V15.8964C22.2405 15.2285 21.9884 14.5854 21.5351 14.095C21.0817 13.6045 20.4605 13.3026 19.7947 13.2493L18.5268 11.3476C18.2155 10.8795 17.7933 10.4957 17.2977 10.2305C16.8021 9.96523 16.2485 9.82675 15.6864 9.82739H12.3082C11.6231 9.82815 10.9662 10.1006 10.4818 10.5851C9.99735 11.0695 9.72486 11.7263 9.7241 12.4114V13.2793C9.29604 13.3673 8.91141 13.6002 8.63503 13.9388C8.35865 14.2773 8.20743 14.7007 8.20686 15.1377V17.0343H7.82755C7.72695 17.0343 7.63047 17.0743 7.55934 17.1454C7.4882 17.2165 7.44824 17.313 7.44824 17.4136C7.44824 17.5142 7.4882 17.6107 7.55934 17.6818C7.63047 17.7529 7.72695 17.7929 7.82755 17.7929ZM15.0344 11.7239C15.0344 11.6741 15.0442 11.6248 15.0633 11.5788C15.0824 11.5327 15.1103 11.4909 15.1455 11.4557C15.1807 11.4205 15.2226 11.3925 15.2686 11.3735C15.3146 11.3544 15.3639 11.3446 15.4138 11.3446C16.0172 11.3453 16.5956 11.5853 17.0223 12.0119C17.449 12.4386 17.689 13.0171 17.6896 13.6205C17.6896 13.6703 17.6798 13.7196 17.6608 13.7657C17.6417 13.8117 17.6138 13.8535 17.5786 13.8887C17.5433 13.924 17.5015 13.9519 17.4555 13.971C17.4095 13.99 17.3601 13.9998 17.3103 13.9998H15.4138C15.3639 13.9998 15.3146 13.99 15.2686 13.971C15.2226 13.9519 15.1807 13.924 15.1455 13.8887C15.1103 13.8535 15.0824 13.8117 15.0633 13.7657C15.0442 13.7196 15.0344 13.6703 15.0344 13.6205V11.7239ZM15.4138 14.7584H16.1724C16.273 14.7584 16.3695 14.7984 16.4406 14.8695C16.5117 14.9407 16.5517 15.0371 16.5517 15.1377C16.5517 15.2383 16.5117 15.3348 16.4406 15.406C16.3695 15.4771 16.273 15.5171 16.1724 15.5171H15.4138C15.3132 15.5171 15.2167 15.4771 15.1455 15.406C15.0744 15.3348 15.0344 15.2383 15.0344 15.1377C15.0344 15.0371 15.0744 14.9407 15.1455 14.8695C15.2167 14.7984 15.3132 14.7584 15.4138 14.7584ZM11.2413 12.8698C11.2418 12.4655 11.4026 12.0778 11.6885 11.7919C11.9744 11.506 12.362 11.3451 12.7664 11.3446H13.8965C13.9463 11.3446 13.9957 11.3544 14.0417 11.3735C14.0877 11.3925 14.1295 11.4205 14.1648 11.4557C14.2 11.4909 14.2279 11.5327 14.247 11.5788C14.266 11.6248 14.2758 11.6741 14.2758 11.7239V13.6205C14.2758 13.6703 14.266 13.7196 14.247 13.7657C14.2279 13.8117 14.2 13.8535 14.1648 13.8887C14.1295 13.924 14.0877 13.9519 14.0417 13.971C13.9957 13.99 13.9463 13.9998 13.8965 13.9998H11.6207C11.5708 13.9998 11.5215 13.99 11.4755 13.971C11.4295 13.9519 11.3876 13.924 11.3524 13.8887C11.3172 13.8535 11.2893 13.8117 11.2702 13.7657C11.2511 13.7196 11.2413 13.6703 11.2413 13.6205V12.8698Z" fill="#5D5E61"/>
</g>
<defs>
<clipPath id="clip0_1062_89539">
<rect width="24" height="24" fill="white"/>
</clipPath>
</defs>
</svg>
