<svg width="24" height="24" viewBox="0 0 24 24" fill="none" xmlns="http://www.w3.org/2000/svg">
<g clip-path="url(#clip0_1062_89497)">
<path d="M11.9994 12.9223L10.313 14.6087L14.6081 18.9038L16.2946 17.2174L11.9994 12.9223Z" fill="#5D5E61"/>
<path d="M17.2174 18.1396L15.5309 19.8261L17.7048 22H21.0778L17.2174 18.1396Z" fill="#5D5E61"/>
<path d="M9.39109 10.3136L5.09595 14.6088L6.78238 16.2952L11.0775 12.0001L9.39109 10.3136Z" fill="#5D5E61"/>
<path d="M9.39126 5.09602L7.70482 6.78245L12 11.0776L13.6864 9.39116L9.39126 5.09602Z" fill="#5D5E61"/>
<path d="M18.1396 6.78262L19.8261 8.4691L22 6.29516V2.92223L18.1396 6.78262Z" fill="#5D5E61"/>
<path d="M9.39129 15.5309L2.92223 22H6.29516L11.0778 17.2174L9.39129 15.5309Z" fill="#5D5E61"/>
<path d="M6.29516 2H2.92223L6.78262 5.86039L8.4691 4.17391L6.29516 2Z" fill="#5D5E61"/>
<path d="M17.7048 2L12.9222 6.78262L14.6087 8.4691L21.0778 2H17.7048Z" fill="#5D5E61"/>
<path d="M8.13961 2L12 5.86039L15.8604 2H8.13961Z" fill="#5D5E61"/>
<path d="M12 18.1396L8.13961 22H15.8604L12 18.1396Z" fill="#5D5E61"/>
<path d="M17.2172 7.7046L12.922 11.9997L14.6085 13.6862L18.9036 9.39103L17.2172 7.7046Z" fill="#5D5E61"/>
<path d="M18.1396 12L22 15.8604V8.13961L18.1396 12Z" fill="#5D5E61"/>
<path d="M17.2174 12.9222L15.5309 14.6087L22 21.0778V17.7048L17.2174 12.9222Z" fill="#5D5E61"/>
<path d="M2 2.92223V6.29516L6.78262 11.0778L8.4691 9.39129L2 2.92223Z" fill="#5D5E61"/>
<path d="M4.17391 15.5309L2 17.7048V21.0778L5.86039 17.2174L4.17391 15.5309Z" fill="#5D5E61"/>
<path d="M2 8.13961V15.8604L5.86039 12L2 8.13961Z" fill="#5D5E61"/>
</g>
<defs>
<clipPath id="clip0_1062_89497">
<rect width="24" height="24" fill="white"/>
</clipPath>
</defs>
</svg>
