<svg width="24" height="24" viewBox="0 0 24 24" fill="none" xmlns="http://www.w3.org/2000/svg">
<g clip-path="url(#clip0_1062_89515)">
<path fill-rule="evenodd" clip-rule="evenodd" d="M15 7.59995C15 10.03 13.0301 12 10.6 12C8.16994 12 6.2 10.03 6.2 7.59995C6.2 7.33417 6.22356 7.07387 6.26872 6.82107L6.27256 6.79995C6.64876 4.75185 8.44314 3.19995 10.6 3.19995C12.7569 3.19995 14.5512 4.75185 14.9274 6.79995C14.9751 7.05937 15 7.32675 15 7.59995ZM8.75544 8.19071H10.1458C10.2605 8.19071 10.3355 8.30901 10.2853 8.41055L9.21242 10.5789C9.13594 10.7335 9.33672 10.8755 9.4609 10.7546L12.9536 7.35499C13.0522 7.25897 12.9832 7.09339 12.8446 7.09339H11.2101C11.1027 7.09339 11.0277 6.98845 11.0641 6.88885L11.8237 4.80549C11.8816 4.64665 11.674 4.52613 11.561 4.65303L8.63878 7.93707C8.55086 8.03587 8.62208 8.19071 8.75544 8.19071Z" fill="#5D5E61"/>
<path fill-rule="evenodd" clip-rule="evenodd" d="M10.6 12.8C13.4719 12.8 15.8 10.4718 15.8 7.59995C15.8 7.32789 15.7791 7.06073 15.7388 6.79995H18.2C18.7523 6.79995 19.2 7.24767 19.2 7.79995V18.4C19.2 18.9522 18.7523 19.4 18.2 19.4H3C2.44772 19.4 2 18.9522 2 18.4V7.79995C2 7.24767 2.44772 6.79995 3 6.79995H5.46116C5.4209 7.06073 5.4 7.32789 5.4 7.59995C5.4 10.4718 7.72812 12.8 10.6 12.8ZM5.4 14.4C5.17908 14.4 5 14.579 5 14.8C5 15.0209 5.17908 15.2 5.4 15.2H16C16.2209 15.2 16.4 15.0209 16.4 14.8C16.4 14.579 16.2209 14.4 16 14.4H5.4ZM5 17.2C5 16.979 5.17908 16.8 5.4 16.8H16C16.2209 16.8 16.4 16.979 16.4 17.2C16.4 17.4209 16.2209 17.6 16 17.6H5.4C5.17908 17.6 5 17.4209 5 17.2Z" fill="#5D5E61"/>
<path d="M20 10.2V16H20.4V17C20.4 17.4418 20.7582 17.8 21.2 17.8C21.6418 17.8 22 17.4418 22 17V9.19995C22 8.75813 21.6418 8.39995 21.2 8.39995C20.7582 8.39995 20.4 8.75813 20.4 9.19995V10.2H20Z" fill="#5D5E61"/>
</g>
<defs>
<clipPath id="clip0_1062_89515">
<rect width="24" height="24" fill="white"/>
</clipPath>
</defs>
</svg>
