<svg width="24" height="24" viewBox="0 0 24 24" fill="none" xmlns="http://www.w3.org/2000/svg">
<g clip-path="url(#clip0_1062_89601)">
<path d="M5.8031 5.03906C3.15466 5.03906 1 7.19372 1 9.84216C1 10.6899 1.22398 11.5234 1.64771 12.2524C1.74695 12.4231 1.85657 12.5875 1.97596 12.7447L5.59441 17.5859H6.01177L9.63024 12.7448C9.74961 12.5875 9.85923 12.4231 9.95849 12.2524C10.3822 11.5234 10.6062 10.6899 10.6062 9.84216C10.6062 7.19372 8.45154 5.03906 5.8031 5.03906ZM5.8031 11.435C4.92479 11.435 4.21024 10.7205 4.21024 9.84216C4.21024 8.96386 4.92479 8.2493 5.8031 8.2493C6.68141 8.2493 7.39597 8.96386 7.39597 9.84216C7.39597 10.7205 6.68141 11.435 5.8031 11.435Z" fill="#5D5E61"/>
<path d="M5.8031 7.875C4.66598 7.875 3.7406 8.80037 3.7406 9.9375C3.7406 11.0746 4.66598 12 5.8031 12C6.94023 12 7.8656 11.0746 7.8656 9.9375C7.8656 8.80037 6.94023 7.875 5.8031 7.875ZM5.8031 10.625C5.4236 10.625 5.1156 10.317 5.1156 9.9375C5.1156 9.558 5.4236 9.25 5.8031 9.25C6.1826 9.25 6.4906 9.558 6.4906 9.9375C6.4906 10.317 6.1826 10.625 5.8031 10.625ZM20.2406 16.125H13.3656C12.608 16.125 11.9906 15.5076 11.9906 14.75C11.9906 13.9924 12.608 13.375 13.3656 13.375H14.8671C15.1517 14.1739 15.908 14.75 16.8031 14.75C17.9402 14.75 18.8656 13.8246 18.8656 12.6875C18.8656 11.5504 17.9402 10.625 16.8031 10.625C15.908 10.625 15.1517 11.2011 14.8671 12H13.3656C11.849 12 10.6156 13.2334 10.6156 14.75C10.6156 16.2666 11.849 17.5 13.3656 17.5H20.2406C20.9982 17.5 21.6156 18.1174 21.6156 18.875C21.6156 19.6326 20.9982 20.25 20.2406 20.25H7.7391C7.45448 19.4511 6.69823 18.875 5.8031 18.875C4.66598 18.875 3.7406 19.8004 3.7406 20.9375C3.7406 22.0746 4.66598 23 5.8031 23C6.69823 23 7.45448 22.4239 7.7391 21.625H20.2406C21.7572 21.625 22.9906 20.3916 22.9906 18.875C22.9906 17.3584 21.7572 16.125 20.2406 16.125ZM16.8031 12C17.1826 12 17.4906 12.308 17.4906 12.6875C17.4906 13.067 17.1826 13.375 16.8031 13.375C16.4236 13.375 16.1156 13.067 16.1156 12.6875C16.1156 12.308 16.4236 12 16.8031 12ZM5.8031 21.625C5.4236 21.625 5.1156 21.317 5.1156 20.9375C5.1156 20.558 5.4236 20.25 5.8031 20.25C6.1826 20.25 6.4906 20.558 6.4906 20.9375C6.4906 21.317 6.1826 21.625 5.8031 21.625Z" fill="#5D5E61"/>
<path d="M21.6857 3.475L22.7363 2.0725C22.7822 2.01122 22.8102 1.93834 22.8171 1.86204C22.8239 1.78575 22.8094 1.70904 22.7752 1.64052C22.741 1.57201 22.6884 1.51438 22.6233 1.47411C22.5582 1.43383 22.4832 1.4125 22.4067 1.4125H17.4628C17.4628 1.3031 17.4194 1.19818 17.3421 1.12082C17.2649 1.04346 17.1601 1 17.0508 1C16.9415 1 16.8367 1.04346 16.7595 1.12082C16.6822 1.19818 16.6388 1.3031 16.6388 1.4125V8.425H16.2268C16.1175 8.425 16.0128 8.46846 15.9355 8.54582C15.8582 8.62318 15.8148 8.7281 15.8148 8.8375C15.8148 8.9469 15.8582 9.05182 15.9355 9.12918C16.0128 9.20654 16.1175 9.25 16.2268 9.25H17.8748C17.9841 9.25 18.0889 9.20654 18.1661 9.12918C18.2434 9.05182 18.2868 8.9469 18.2868 8.8375C18.2868 8.7281 18.2434 8.62318 18.1661 8.54582C18.0889 8.46846 17.9841 8.425 17.8748 8.425H17.4628V5.5375H22.4067C22.4832 5.5375 22.5582 5.51617 22.6233 5.47589C22.6884 5.43562 22.741 5.37799 22.7752 5.30948C22.8094 5.24096 22.8239 5.16425 22.8171 5.08796C22.8102 5.01166 22.7822 4.93878 22.7363 4.8775L21.6857 3.475Z" fill="#5D5E61"/>
</g>
<defs>
<clipPath id="clip0_1062_89601">
<rect width="24" height="24" fill="white"/>
</clipPath>
</defs>
</svg>
