<svg width="24" height="24" viewBox="0 0 24 24" fill="none" xmlns="http://www.w3.org/2000/svg">
<g clip-path="url(#clip0_1062_89507)">
<path d="M2.9375 7H3.71875C3.80163 7 3.88112 6.96708 3.93972 6.90847C3.99833 6.84987 4.03125 6.77038 4.03125 6.6875C4.03125 6.60462 3.99833 6.52513 3.93972 6.46653C3.88112 6.40792 3.80163 6.375 3.71875 6.375H2.9375C2.85462 6.375 2.77513 6.40792 2.71653 6.46653C2.65792 6.52513 2.625 6.60462 2.625 6.6875C2.625 6.77038 2.65792 6.84987 2.71653 6.90847C2.77513 6.96708 2.85462 7 2.9375 7Z" fill="#5D5E61"/>
<path d="M6.6875 8.5625C7.72303 8.5625 8.5625 7.72303 8.5625 6.6875C8.5625 5.65197 7.72303 4.8125 6.6875 4.8125C5.65197 4.8125 4.8125 5.65197 4.8125 6.6875C4.8125 7.72303 5.65197 8.5625 6.6875 8.5625Z" fill="#5D5E61"/>
<path d="M6.6875 4.03125C6.77038 4.03125 6.84987 3.99833 6.90847 3.93972C6.96708 3.88112 7 3.80163 7 3.71875V2.9375C7 2.85462 6.96708 2.77513 6.90847 2.71653C6.84987 2.65792 6.77038 2.625 6.6875 2.625C6.60462 2.625 6.52513 2.65792 6.46653 2.71653C6.40792 2.77513 6.375 2.85462 6.375 2.9375V3.71875C6.375 3.80163 6.40792 3.88112 6.46653 3.93972C6.52513 3.99833 6.60462 4.03125 6.6875 4.03125Z" fill="#5D5E61"/>
<path d="M4.36719 4.80938C4.42627 4.86551 4.50494 4.89634 4.58643 4.89529C4.66792 4.89425 4.74577 4.86142 4.8034 4.80379C4.86103 4.74616 4.89386 4.66831 4.8949 4.58682C4.89595 4.50533 4.86512 4.42666 4.80898 4.36758L4.25664 3.81484C4.19756 3.75871 4.11889 3.72788 4.0374 3.72893C3.95591 3.72997 3.87805 3.7628 3.82043 3.82043C3.7628 3.87805 3.72997 3.95591 3.72893 4.0374C3.72788 4.11889 3.75871 4.19756 3.81484 4.25664L4.36719 4.80938Z" fill="#5D5E61"/>
<path d="M4.36719 8.56563L3.81484 9.11836C3.75871 9.17744 3.72788 9.25611 3.72893 9.3376C3.72997 9.41909 3.7628 9.49695 3.82043 9.55457C3.87805 9.6122 3.95591 9.64503 4.0374 9.64607C4.11889 9.64712 4.19756 9.61629 4.25664 9.56016L4.80898 9.00742C4.86512 8.94834 4.89595 8.86967 4.8949 8.78818C4.89386 8.70669 4.86103 8.62884 4.8034 8.57121C4.74577 8.51358 4.66792 8.48075 4.58643 8.47971C4.50494 8.47866 4.42627 8.50949 4.36719 8.56563Z" fill="#5D5E61"/>
<path d="M6.375 9.65625V10.4375C6.375 10.5204 6.40792 10.5999 6.46653 10.6585C6.52513 10.7171 6.60462 10.75 6.6875 10.75C6.77038 10.75 6.84987 10.7171 6.90847 10.6585C6.96708 10.5999 7 10.5204 7 10.4375V9.65625C7 9.57337 6.96708 9.49388 6.90847 9.43528C6.84987 9.37667 6.77038 9.34375 6.6875 9.34375C6.60462 9.34375 6.52513 9.37667 6.46653 9.43528C6.40792 9.49388 6.375 9.57337 6.375 9.65625Z" fill="#5D5E61"/>
<path d="M8.56602 8.56563C8.50745 8.62422 8.47456 8.70368 8.47456 8.78652C8.47456 8.86937 8.50745 8.94882 8.56602 9.00742L9.11836 9.56016C9.17744 9.61629 9.25611 9.64712 9.3376 9.64607C9.41909 9.64503 9.49695 9.6122 9.55457 9.55457C9.6122 9.49695 9.64503 9.41909 9.64608 9.3376C9.64712 9.25611 9.61629 9.17744 9.56016 9.11836L9.00781 8.56563C8.94921 8.50706 8.86976 8.47417 8.78691 8.47417C8.70407 8.47417 8.62461 8.50706 8.56602 8.56563Z" fill="#5D5E61"/>
<path d="M9.34375 6.6875C9.34375 6.77038 9.37667 6.84987 9.43528 6.90847C9.49388 6.96708 9.57337 7 9.65625 7H10.4375C10.5204 7 10.5999 6.96708 10.6585 6.90847C10.7171 6.84987 10.75 6.77038 10.75 6.6875C10.75 6.60462 10.7171 6.52513 10.6585 6.46653C10.5999 6.40792 10.5204 6.375 10.4375 6.375H9.65625C9.57337 6.375 9.49388 6.40792 9.43528 6.46653C9.37667 6.52513 9.34375 6.60462 9.34375 6.6875Z" fill="#5D5E61"/>
<path d="M8.78672 4.90078C8.82777 4.90081 8.86842 4.89276 8.90636 4.87707C8.94429 4.86139 8.97877 4.83839 9.00781 4.80937L9.56016 4.25664C9.61629 4.19756 9.64712 4.11889 9.64607 4.0374C9.64503 3.95591 9.6122 3.87805 9.55457 3.82043C9.49695 3.7628 9.41909 3.72997 9.3376 3.72893C9.25611 3.72788 9.17744 3.75871 9.11836 3.81484L8.56602 4.36758C8.52242 4.41128 8.49274 4.46691 8.48073 4.52746C8.46871 4.58801 8.4749 4.65076 8.49851 4.7078C8.52212 4.76483 8.56209 4.8136 8.61338 4.84795C8.66467 4.88229 8.72499 4.90068 8.78672 4.90078Z" fill="#5D5E61"/>
<path d="M17.1414 12.1484L21.2578 8.80508C21.2942 8.77594 21.3236 8.73904 21.3439 8.69707C21.3642 8.65509 21.3748 8.60911 21.375 8.5625V7.3125C21.3824 7.07383 21.0934 6.91406 20.8953 7.04844L8.15937 15.125H5.75C5.39 15.1255 5.04118 15.2501 4.76233 15.4778C4.48348 15.7055 4.29164 16.0224 4.21914 16.375H3.875C3.54348 16.375 3.22554 16.5067 2.99112 16.7411C2.7567 16.9755 2.625 17.2935 2.625 17.625C2.625 17.9565 2.7567 18.2745 2.99112 18.5089C3.22554 18.7433 3.54348 18.875 3.875 18.875H4.1875V21.0625C4.1875 21.1454 4.22042 21.2249 4.27903 21.2835C4.33763 21.3421 4.41712 21.375 4.5 21.375H19.5C19.5829 21.375 19.6624 21.3421 19.721 21.2835C19.7796 21.2249 19.8125 21.1454 19.8125 21.0625V18.875H20.125C20.4565 18.875 20.7745 18.7433 21.0089 18.5089C21.2433 18.2745 21.375 17.9565 21.375 17.625C21.375 17.2935 21.2433 16.9755 21.0089 16.7411C20.7745 16.5067 20.4565 16.375 20.125 16.375H19.7809C19.7084 16.0224 19.5165 15.7055 19.2377 15.4778C18.9588 15.2501 18.61 15.1255 18.25 15.125H18.1047L16.9531 13.3984C16.8229 13.2041 16.7701 12.9682 16.8049 12.7369C16.8397 12.5057 16.9598 12.2958 17.1414 12.1484ZM13.3523 14.0312L15.127 12.9043C15.1415 13.2914 15.2241 13.6729 15.3711 14.0312H13.3523ZM19.1336 16.375H4.86602C4.93064 16.1922 5.05036 16.0339 5.20867 15.922C5.36699 15.8101 5.55611 15.75 5.75 15.75H18.25C18.4439 15.75 18.633 15.8101 18.7913 15.922C18.9496 16.0339 19.069 16.1922 19.1336 16.375Z" fill="#5D5E61"/>
</g>
<defs>
<clipPath id="clip0_1062_89507">
<rect width="24" height="24" fill="white"/>
</clipPath>
</defs>
</svg>
