<svg width="20" height="16" viewBox="0 0 20 16" fill="none" xmlns="http://www.w3.org/2000/svg">
<path d="M4.40774 12.8267H8.25556V14.0003H4.40774V12.8267Z" fill="#0291DD"/>
<path d="M4.40774 10.4795H8.25556V11.6531H4.40774V10.4795Z" fill="#0291DD"/>
<path d="M0 5.92967C0 6.65642 0.525587 7.24774 1.17162 7.24774H3.23612V4.6116H1.17162C0.525587 4.6116 0 5.20288 0 5.92967Z" fill="#0291DD"/>
<path d="M0 13.838C0 14.5648 0.525587 15.1561 1.17162 15.1561H3.23612V12.52H1.17162C0.525587 12.52 0 13.1113 0 13.838Z" fill="#0291DD"/>
<path d="M4.40774 8.13235H8.25556V9.30591H4.40774V8.13235Z" fill="#0291DD"/>
<path d="M0 9.88387C0 10.6106 0.525587 11.2019 1.17162 11.2019H3.23612V8.56581H1.17162C0.525587 8.56581 0 9.15708 0 9.88387Z" fill="#0291DD"/>
<path d="M18.8284 8.56581H9.42722V11.2019H18.8284C19.4745 11.2019 20 10.6106 20 9.88387C20 9.15708 19.4744 8.56581 18.8284 8.56581Z" fill="#0291DD"/>
<path d="M9.42722 7.24774H18.8284C19.4745 7.24774 20 6.65642 20 5.92967C20 5.20288 19.4745 4.6116 18.8284 4.6116H9.42722V7.24774Z" fill="#0291DD"/>
<path d="M4.40774 5.78521H8.25556V6.95878H4.40774V5.78521Z" fill="#0291DD"/>
<path d="M18.8284 12.52H9.42722V15.1561H18.8284C19.4745 15.1561 20 14.5648 20 13.838C20 13.1113 19.4744 12.52 18.8284 12.52Z" fill="#0291DD"/>
<path d="M9.42722 2.77989C9.42722 2.35846 9.77007 2.01561 10.1915 2.01561C10.6129 2.01561 10.9558 2.35846 10.9558 2.77989V3.34891H12.1274V2.77989C12.1274 1.71244 11.259 0.843994 10.1915 0.843994C9.12404 0.843994 8.2556 1.71244 8.2556 2.77989V4.6116L9.42722 4.6116L9.42722 2.77989Z" fill="#0291DD"/>
<path d="M4.40774 2.77989C4.40774 2.35846 4.75059 2.01561 5.17202 2.01561C5.59345 2.01561 5.93631 2.35846 5.93631 2.77989V3.34891H7.10792V2.77989C7.10792 1.71244 6.23948 0.843994 5.17198 0.843994C4.10452 0.843994 3.23612 1.71244 3.23612 2.77989L3.23612 4.6116L4.40774 4.6116V2.77989Z" fill="#0291DD"/>
</svg>
