<svg width="24" height="24" viewBox="0 0 24 24" fill="none" xmlns="http://www.w3.org/2000/svg">
<g clip-path="url(#clip0_1062_89543)">
<path d="M20.8672 22H2.97656C2.82031 22 2.70312 21.8828 2.70312 21.7266V11.5312C2.70312 11.375 2.82031 11.2578 2.97656 11.2578H20.8672C21.0234 11.2578 21.1406 11.375 21.1406 11.5312V21.7266C21.1406 21.8828 21.0234 22 20.8672 22ZM6.92188 14.3047H16.8828V13.7578H6.92188V14.3047ZM7.35156 20.0078C7.19531 20.0078 7.07812 19.8906 7.07812 19.7344V14.8516H6.64844C6.49219 14.8516 6.375 14.7344 6.375 14.5781V13.4844C6.375 13.3281 6.49219 13.2109 6.64844 13.2109H17.1562C17.3125 13.2109 17.4297 13.3281 17.4297 13.4844V14.5781C17.4297 14.7344 17.2734 14.8516 17.1562 14.8516H16.7266V19.7344C16.7266 19.8906 16.6094 20.0078 16.4531 20.0078C13.4062 20.0078 10.3984 20.0078 7.35156 20.0078ZM11.6484 19.4609V14.8516H7.625V19.4609H11.6484ZM12.1953 14.8516V19.4609H16.1797V14.8516H12.1953Z" fill="#5D5E61"/>
<path d="M20.8672 11.8047H2.97656C2.82031 11.8047 2.70312 11.6875 2.70312 11.5312V7.9375C2.70312 7.78125 2.82031 7.66406 2.97656 7.66406H20.8672C21.0234 7.66406 21.1406 7.78125 21.1406 7.9375V11.5312C21.1406 11.6875 21.0234 11.8047 20.8672 11.8047ZM3.25 11.2578H20.5938V8.21094H3.25V11.2578Z" fill="#5D5E61"/>
<path d="M4.92969 11.8047C4.77344 11.8047 4.65625 11.6875 4.65625 11.5312V7.9375C4.65625 7.78125 4.77344 7.66406 4.92969 7.66406C5.08594 7.66406 5.20312 7.78125 5.20312 7.9375V11.5312C5.20312 11.6875 5.08594 11.8047 4.92969 11.8047Z" fill="#5D5E61"/>
<path d="M7.74219 11.8047C7.58594 11.8047 7.46875 11.6875 7.46875 11.5312V7.9375C7.46875 7.78125 7.58594 7.66406 7.74219 7.66406C7.89844 7.66406 8.01562 7.78125 8.01562 7.9375V11.5312C8.01562 11.6875 7.89844 11.8047 7.74219 11.8047Z" fill="#5D5E61"/>
<path d="M10.5156 11.8047C10.3594 11.8047 10.2422 11.6875 10.2422 11.5312V7.9375C10.2422 7.78125 10.3594 7.66406 10.5156 7.66406C10.6719 7.66406 10.7891 7.78125 10.7891 7.9375V11.5312C10.7891 11.6875 10.6719 11.8047 10.5156 11.8047Z" fill="#5D5E61"/>
<path d="M13.2891 11.8047C13.1328 11.8047 13.0156 11.6875 13.0156 11.5312V7.9375C13.0156 7.78125 13.1328 7.66406 13.2891 7.66406C13.4453 7.66406 13.5625 7.78125 13.5625 7.9375V11.5312C13.5625 11.6875 13.4453 11.8047 13.2891 11.8047Z" fill="#5D5E61"/>
<path d="M16.1016 11.8047C15.9453 11.8047 15.8281 11.6875 15.8281 11.5312V7.9375C15.8281 7.78125 15.9453 7.66406 16.1016 7.66406C16.2578 7.66406 16.375 7.78125 16.375 7.9375V11.5312C16.375 11.6875 16.2578 11.8047 16.1016 11.8047Z" fill="#5D5E61"/>
<path d="M18.875 11.8047C18.7188 11.8047 18.6016 11.6875 18.6016 11.5312V7.9375C18.6016 7.78125 18.7188 7.66406 18.875 7.66406C19.0312 7.66406 19.1484 7.78125 19.1484 7.9375V11.5312C19.1484 11.6875 19.0312 11.8047 18.875 11.8047Z" fill="#5D5E61"/>
<path d="M5.67188 10.7109V8.75781H6.92188V10.7109H5.67188ZM8.5625 8.75781H9.69531V10.7109H8.5625V8.75781ZM11.3359 8.75781H12.1953V10.7109H11.3359V8.75781ZM5.67188 7.11719V3.875C5.67188 3.71875 5.78906 3.60156 5.94531 3.60156H11.9219C12.0781 3.60156 12.1953 3.71875 12.1953 3.875V7.11719H5.67188Z" fill="#5D5E61"/>
<path d="M14.1094 8.75781H14.5391L14.8516 10.7109H14.1094V8.75781ZM12.7422 7.11719V6.17969L13.9141 6.21875C14.0703 6.21875 14.1484 6.33594 14.1875 6.45312L14.3047 7.11719H12.7422Z" fill="#5D5E61"/>
<path d="M21.0234 5.67188H13.4844C13.3672 5.67188 13.25 5.59375 13.2109 5.47656C13.1719 5.39844 13.2109 5.28125 13.3281 5.20312L17.0781 2.07812C17.1562 1.96094 17.3125 1.96094 17.3906 2.07812L21.1797 5.20312C21.2969 5.28125 21.3359 5.39844 21.2969 5.47656C21.2578 5.59375 21.1406 5.67188 21.0234 5.67188Z" fill="#5D5E61"/>
<path d="M16.9609 10.7109V8.75781H17.5078V10.7109H16.9609ZM16.9609 7.11719V5.39844C16.9609 5.24219 17.0781 5.125 17.2344 5.125C17.3906 5.125 17.5078 5.24219 17.5078 5.39844V7.11719H16.9609Z" fill="#5D5E61"/>
</g>
<defs>
<clipPath id="clip0_1062_89543">
<rect width="24" height="24" fill="white"/>
</clipPath>
</defs>
</svg>
