<svg width="24" height="24" viewBox="0 0 24 24" fill="none" xmlns="http://www.w3.org/2000/svg">
<g clip-path="url(#clip0_1062_89556)">
<path d="M4.35332 12.5861H10.2324V13.7676H4.35332V12.5861ZM4.35332 19.0606C4.35332 20.6813 5.67199 22 7.29305 22C8.91371 22 10.2324 20.6813 10.2324 19.0606V14.9398H4.35332V19.0606ZM7.29266 16.417C7.61656 16.417 7.8791 16.6796 7.8791 17.0031C7.8791 17.327 7.61652 17.5896 7.29266 17.5896C6.96914 17.5896 6.7066 17.327 6.7066 17.0031C6.7066 16.6796 6.96918 16.417 7.29266 16.417ZM7.29266 18.7703C7.61656 18.7703 7.8791 19.0333 7.8791 19.3568C7.8791 19.6803 7.61652 19.9429 7.29266 19.9429C6.96914 19.9429 6.7066 19.6803 6.7066 19.3568C6.7066 19.0333 6.96918 18.7703 7.29266 18.7703ZM11.4139 12.5861H17.293V13.7676H11.4139V12.5861ZM6.41277 2H4.6452C4.32168 2 4.05914 2.26219 4.05914 2.58609V3.18117H6.41281L6.41277 2ZM7.58492 2H14.0614V3.18113H7.58492V2ZM17.5872 2.58609C17.5872 2.26219 17.3246 2 17.0011 2H15.2336V3.18113H17.5872V2.58609Z" fill="#5D5E61"/>
<path d="M21.4139 5.5302H19.6465V4.93953C19.6465 4.61586 19.3841 4.35344 19.0605 4.35344H2.58605C2.26238 4.35344 2 4.61582 2 4.93953V7.29301C2 7.61668 2.26238 7.8791 2.58605 7.8791H5.5302V9.06027H4.93941C4.6159 9.06027 4.35336 9.32285 4.35336 9.64637V11.414H10.2324V9.64637C10.2324 9.32285 9.97023 9.06027 9.64637 9.06027H9.05586V7.8791H12.5907V9.06027H12C11.6765 9.06027 11.4139 9.32285 11.4139 9.64637V11.414H17.293V9.64637C17.293 9.32285 17.0305 9.06027 16.707 9.06027H16.1163V7.8791H19.0605C19.3841 7.8791 19.6465 7.61672 19.6465 7.29301V6.70234H20.8279V13.7651C20.8279 15.6198 19.2338 17.267 17.293 17.5491V14.9398H11.4139V19.0606C11.4139 20.6813 12.7326 22 14.3537 22C15.9743 22 17.293 20.6813 17.293 19.0606V18.7296C19.7911 18.4406 22 16.3622 22 13.7651V6.11629C22 5.79262 21.7376 5.5302 21.4139 5.5302ZM14.3533 19.9429C14.0298 19.9429 13.7672 19.6803 13.7672 19.3568C13.7672 19.0333 14.0298 18.7703 14.3533 18.7703C14.6768 18.7703 14.9397 19.0333 14.9397 19.3568C14.9397 19.6803 14.6768 19.9429 14.3533 19.9429ZM14.3533 17.5896C14.0298 17.5896 13.7672 17.327 13.7672 17.0031C13.7672 16.6796 14.0298 16.417 14.3533 16.417C14.6768 16.417 14.9397 16.6796 14.9397 17.0031C14.9397 17.327 14.6768 17.5896 14.3533 17.5896Z" fill="#5D5E61"/>
</g>
<defs>
<clipPath id="clip0_1062_89556">
<rect width="24" height="24" fill="white"/>
</clipPath>
</defs>
</svg>
