<svg width="24" height="24" viewBox="0 0 24 24" fill="none" xmlns="http://www.w3.org/2000/svg">
<g clip-path="url(#clip0_1062_89541)">
<path d="M20.75 18.6875H3.25C2.5625 18.6875 2 19.25 2 19.9375C2 20.625 2.5625 21.1875 3.25 21.1875H20.75C21.4375 21.1875 22 20.625 22 19.9375C22 19.25 21.4375 18.6875 20.75 18.6875Z" fill="#5D5E61"/>
<path d="M12.625 7H13.25V18.0625H13.875V16.9062H17.3125V18.0625H17.9375V7H18.5625V18.0625H21.375V7.625C21.375 7.03125 20.9688 6.5625 20.4375 6.40625V4.5C20.4375 4.15625 20.1562 3.875 19.8125 3.875H17.9375V2.9375C17.9375 2.40625 17.5313 2 17 2H15.75C15.2188 2 14.8125 2.40625 14.8125 2.9375V3.875H13.875V2.9375C13.875 2.40625 13.4688 2 12.9375 2H11.6875C11.1875 2 10.75 2.40625 10.75 2.9375V3.875H4.1875C3.84375 3.875 3.5625 4.15625 3.5625 4.5V6.40625C3.03125 6.53125 2.625 7.03125 2.625 7.625V18.0625H12.625V7ZM17.3125 16.2812H13.875V14.4062H17.3125V16.2812ZM17.3125 13.7812H13.875V11.9062H17.3125V13.7812ZM17.3125 11.2812H13.875V9.40625H17.3125V11.2812ZM17.3125 8.78125H13.875V7H17.3125V8.78125ZM19.8125 4.5V6.375H17.9375V4.5H19.8125ZM15.4375 2.9375C15.4375 2.75 15.5625 2.625 15.75 2.625H17C17.1875 2.625 17.3125 2.75 17.3125 2.9375V3.875H15.4375V2.9375ZM17.3125 4.5V6.375H13.875V4.5H17.3125ZM11.375 2.9375C11.375 2.75 11.5313 2.625 11.6875 2.625H12.9375C13.125 2.625 13.25 2.75 13.25 2.9375V3.875H11.375V2.9375ZM4.1875 4.5H13.25V6.375H4.1875V4.5ZM5.65625 16.9687C5.21875 16.9687 4.875 16.625 4.875 16.1875C4.875 15.75 5.21875 15.4062 5.65625 15.4062C6.09375 15.4062 6.4375 15.75 6.4375 16.1875C6.4375 16.625 6.09375 16.9687 5.65625 16.9687ZM8.4375 14.0937C8 14.0937 7.65625 13.75 7.65625 13.3125C7.65625 12.875 8 12.5312 8.4375 12.5312C8.875 12.5312 9.21875 12.875 9.21875 13.3125C9.21875 13.75 8.875 14.0937 8.4375 14.0937ZM10.7812 16.75C10.3438 16.75 10 16.4062 10 15.9687C10 15.5312 10.3438 15.1875 10.7812 15.1875C11.2188 15.1875 11.5625 15.5312 11.5625 15.9687C11.5625 16.4062 11.2188 16.75 10.7812 16.75Z" fill="#5D5E61"/>
</g>
<defs>
<clipPath id="clip0_1062_89541">
<rect width="24" height="24" fill="white"/>
</clipPath>
</defs>
</svg>
