<svg width="24" height="24" viewBox="0 0 24 24" fill="none" xmlns="http://www.w3.org/2000/svg">
<g clip-path="url(#clip0_1062_89545)">
<path d="M19.56 5.76667H20.28C20.6764 5.76367 20.9971 5.4371 21 5.03333C20.9988 4.62883 20.6772 4.30121 20.28 4.3H19.56V2.1C19.56 1.49249 19.0765 1 18.48 1C17.8835 1 17.4 1.49249 17.4 2.1V13.8333H19.56V5.76667Z" fill="#5D5E61"/>
<path d="M20.28 14.5667H15.5028L15.8844 12.4327C15.9167 12.2368 15.7883 12.051 15.5964 12.0158C15.5964 12.0103 15.5996 12.0055 15.5996 12C15.5996 10.3306 14.6046 8.87087 13.1797 8.4503C13.147 8.44313 13.1134 8.44078 13.08 8.44333V5.76667H16.68V4.3H13.08V3.93333C13.08 3.52832 12.7576 3.2 12.36 3.2C11.9624 3.2 11.64 3.52832 11.64 3.93333C11.64 3.52832 11.3176 3.2 10.92 3.2C10.5224 3.2 10.2 3.52832 10.2 3.93333C10.2 3.52832 9.87765 3.2 9.48 3.2C9.08236 3.2 8.76 3.52832 8.76 3.93333C8.76 3.52832 8.43764 3.2 8.04 3.2C7.64235 3.2 7.32 3.52832 7.32 3.93333V6.13333C7.32 6.53834 7.64235 6.86667 8.04 6.86667C8.43764 6.86667 8.76 6.53834 8.76 6.13333C8.76 6.53834 9.08236 6.86667 9.48 6.86667C9.87765 6.86667 10.2 6.53834 10.2 6.13333C10.2 6.53834 10.5224 6.86667 10.92 6.86667C11.3176 6.86667 11.64 6.53834 11.64 6.13333V8.44333C11.6064 8.44091 11.5727 8.44363 11.5399 8.4514C10.115 8.87087 9.12 10.3306 9.12 12C9.12 12.0055 9.12288 12.0103 9.12324 12.0158C8.93136 12.051 8.80297 12.2368 8.83524 12.4327L9.2172 14.5667H3.72C3.32235 14.5667 3 14.895 3 15.3V16.4C3 16.805 3.32235 17.1333 3.72 17.1333H20.28C20.6776 17.1333 21 16.805 21 16.4V15.3C21 14.895 20.6776 14.5667 20.28 14.5667ZM11.6522 9.19024C11.7107 9.54191 12.0098 9.79927 12.36 9.79927C12.7102 9.79927 13.0093 9.54191 13.0678 9.19024C14.1974 9.63856 14.9246 10.766 14.88 12H9.84C9.79542 10.766 10.5226 9.63856 11.6522 9.19024Z" fill="#5D5E61"/>
<path d="M3.72 5.76667H4.44V13.8333H6.6V2.1C6.6 1.49249 6.11647 1 5.52 1C4.92353 1 4.44 1.49249 4.44 2.1V4.3H3.72C3.32358 4.303 3.00294 4.62957 3 5.03333C3.00119 5.43784 3.32285 5.76546 3.72 5.76667Z" fill="#5D5E61"/>
<path d="M4.08 22.2667C4.08 22.6717 4.40235 23 4.8 23H19.2C19.5976 23 19.92 22.6717 19.92 22.2667V17.8667H4.08V22.2667ZM8.04 19.3333H12.36C12.5588 19.3333 12.72 19.4975 12.72 19.7C12.72 19.9025 12.5588 20.0667 12.36 20.0667H8.04C7.84118 20.0667 7.68 19.9025 7.68 19.7C7.68 19.4975 7.84118 19.3333 8.04 19.3333ZM5.88 19.3333H6.6C6.79882 19.3333 6.96 19.4975 6.96 19.7C6.96 19.9025 6.79882 20.0667 6.6 20.0667H5.88C5.68118 20.0667 5.52 19.9025 5.52 19.7C5.52 19.4975 5.68118 19.3333 5.88 19.3333Z" fill="#5D5E61"/>
</g>
<defs>
<clipPath id="clip0_1062_89545">
<rect width="24" height="24" fill="white"/>
</clipPath>
</defs>
</svg>
